M48
; DRILL file {KiCad 9.0.6} date 2025-12-15T15:09:00+0700
; FORMAT={-:-/ absolute / metric / decimal}
; #@! TF.CreationDate,2025-12-15T15:09:00+07:00
; #@! TF.GenerationSoftware,Kicad,Pcbnew,9.0.6
; #@! TF.FileFunction,Plated,1,2,PTH
FMAT,2
METRIC
; #@! TA.AperFunction,Plated,PTH,ComponentDrill
T1C0.200
; #@! TA.AperFunction,Plated,PTH,ComponentDrill
T2C0.600
; #@! TA.AperFunction,Plated,PTH,ViaDrill
T3C0.610
; #@! TA.AperFunction,Plated,PTH,ComponentDrill
T4C0.800
; #@! TA.AperFunction,Plated,PTH,ComponentDrill
T5C0.990
; #@! TA.AperFunction,Plated,PTH,ComponentDrill
T6C1.000
; #@! TA.AperFunction,Plated,PTH,ComponentDrill
T7C1.100
; #@! TA.AperFunction,Plated,PTH,ComponentDrill
T8C1.300
%
G90
G05
T1
X134.225Y-104.16
X134.225Y-105.66
X134.975Y-103.41
X134.975Y-104.91
X134.975Y-106.41
X135.725Y-104.16
X135.725Y-105.66
X136.475Y-103.41
X136.475Y-104.91
X136.475Y-106.41
X137.225Y-104.16
X137.225Y-105.66
X143.6Y-75.6
X143.6Y-76.8
X143.6Y-78.0
X145.0Y-75.6
X145.0Y-76.8
X145.0Y-78.0
T3
X114.984Y-105.114
X115.178Y-107.656
X118.027Y-92.539
X118.048Y-86.676
X118.364Y-72.985
X118.42Y-78.288
X118.875Y-102.192
X118.875Y-106.683
X119.185Y-90.824
X119.329Y-110.143
X119.38Y-82.167
X121.285Y-99.782
X121.36Y-110.605
X121.92Y-108.204
X122.571Y-102.617
X122.936Y-74.168
X122.975Y-84.768
X123.192Y-90.763
X123.264Y-108.922
X123.698Y-105.156
X123.744Y-95.241
X123.745Y-101.636
X123.887Y-93.661
X123.952Y-86.868
X125.984Y-86.361
X126.615Y-90.934
X127.754Y-105.148
X128.016Y-94.488
X128.524Y-90.932
X128.526Y-69.087
X128.711Y-87.373
X128.778Y-72.402
X129.032Y-102.616
X129.54Y-108.458
X129.541Y-94.487
X129.604Y-106.172
X130.048Y-86.641
X130.048Y-90.934
X130.624Y-78.133
X130.81Y-74.434
X130.81Y-75.958
X131.065Y-94.489
X131.433Y-106.565
X132.08Y-90.424
X132.589Y-94.489
X132.88Y-71.628
X133.016Y-79.496
X133.604Y-90.424
X133.874Y-100.989
X134.729Y-82.238
X135.128Y-72.402
X135.382Y-97.79
X135.383Y-101.203
X135.991Y-67.056
X136.144Y-71.12
X136.304Y-82.589
X136.808Y-98.327
X137.414Y-94.234
X138.03Y-95.628
X138.176Y-108.922
X138.43Y-75.946
X138.684Y-90.424
X138.684Y-104.902
X138.938Y-72.402
X139.446Y-100.584
X139.666Y-77.182
X139.7Y-74.93
X139.7Y-108.966
X139.91Y-85.046
X140.208Y-81.788
X140.208Y-90.424
X140.208Y-106.426
X140.214Y-79.508
X140.97Y-110.606
X141.479Y-98.806
X141.479Y-100.33
X141.701Y-67.056
X145.542Y-95.248
X145.796Y-88.391
X145.796Y-91.95
X146.049Y-98.925
X146.05Y-100.449
X147.066Y-97.79
X147.066Y-109.22
X148.082Y-99.941
X148.103Y-94.742
X148.844Y-74.93
X149.606Y-100.076
X152.483Y-84.919
X152.654Y-77.216
X153.67Y-83.82
X153.67Y-105.41
X154.178Y-79.0
X154.686Y-99.427
X155.702Y-87.375
X157.392Y-88.391
X157.734Y-70.866
X157.734Y-81.4
X157.734Y-79.876
X159.214Y-69.386
X159.759Y-93.632
X161.196Y-92.195
X161.544Y-84.493
X161.544Y-112.776
X162.052Y-71.628
X162.56Y-88.391
X162.7Y-91.95
X162.814Y-98.918
X164.084Y-112.776
X164.338Y-98.918
X165.354Y-88.391
X169.94Y-78.994
X169.984Y-111.506
T4
X112.0Y-64.69
X112.0Y-72.31
X112.0Y-80.5
X112.0Y-88.12
X112.0Y-97.5
X112.0Y-105.12
X116.0Y-76.5
X116.0Y-78.5
X116.0Y-80.5
X116.0Y-82.5
X116.0Y-84.5
X116.0Y-86.5
X116.0Y-88.5
X116.0Y-90.5
X116.0Y-92.5
X116.0Y-94.5
X116.0Y-96.5
X116.0Y-98.5
X116.0Y-100.5
X116.0Y-102.5
X162.0Y-114.5
X164.0Y-114.5
X164.084Y-68.596
X164.084Y-70.596
X168.19Y-71.5
X171.0Y-114.5
X173.0Y-114.5
X175.0Y-114.5
X175.81Y-71.5
X177.0Y-114.5
X178.19Y-71.5
X181.38Y-105.5
X185.81Y-71.5
X188.19Y-71.5
X189.0Y-105.5
X192.0Y-105.5
X195.81Y-71.5
X196.0Y-101.5
X198.0Y-101.5
X199.62Y-105.5
X200.0Y-101.5
X201.0Y-68.465
X201.0Y-76.085
X202.0Y-101.5
X202.946Y-109.744
X202.946Y-111.744
X204.0Y-101.5
X206.0Y-101.5
X209.0Y-86.5
X209.0Y-88.5
X209.0Y-90.5
X209.0Y-92.5
T5
X169.5Y-64.5
X174.0Y-64.5
X179.5Y-64.5
X183.5Y-113.787
X184.0Y-64.5
X188.0Y-113.787
X189.725Y-64.5
X193.5Y-113.787
X194.225Y-64.5
X198.0Y-113.787
X208.0Y-70.0
X208.0Y-74.5
T6
X121.0Y-88.5
X121.0Y-91.04
T7
X126.0Y-64.42
X126.0Y-74.58
X151.5Y-92.0
X151.5Y-96.5
X151.5Y-102.5
X151.5Y-107.0
X158.0Y-92.0
X158.0Y-96.5
X158.0Y-102.5
X158.0Y-107.0
T8
X168.25Y-66.99
X175.26Y-66.99
X178.25Y-66.99
X182.24Y-111.297
X185.26Y-66.99
X188.475Y-66.99
X189.25Y-111.297
X192.24Y-111.297
X195.485Y-66.99
X199.25Y-111.297
X205.51Y-68.75
X205.51Y-75.76
T2
G00X130.5Y-64.4
M15
G01X130.5Y-63.6
M16
G05
G00X130.5Y-68.73
M15
G01X130.5Y-67.63
M16
G05
G00X139.14Y-64.4
M15
G01X139.14Y-63.6
M16
G05
G00X139.14Y-68.73
M15
G01X139.14Y-67.63
M16
G05
M30
