%TF.GenerationSoftware,KiCad,Pcbnew,9.0.6*%
%TF.CreationDate,2025-12-14T23:53:19+07:00*%
%TF.ProjectId,audio_player,61756469-6f5f-4706-9c61-7965722e6b69,rev?*%
%TF.SameCoordinates,Original*%
%TF.FileFunction,Legend,Top*%
%TF.FilePolarity,Positive*%
%FSLAX46Y46*%
G04 Gerber Fmt 4.6, Leading zero omitted, Abs format (unit mm)*
G04 Created by KiCad (PCBNEW 9.0.6) date 2025-12-14 23:53:19*
%MOMM*%
%LPD*%
G01*
G04 APERTURE LIST*
%ADD10C,0.190500*%
%ADD11C,0.254000*%
%ADD12C,0.100000*%
%ADD13C,0.300000*%
%ADD14C,0.150000*%
%ADD15C,0.120000*%
G04 APERTURE END LIST*
D10*
X204958185Y-109116839D02*
X205429899Y-109116839D01*
X205429899Y-109116839D02*
X205175899Y-109407125D01*
X205175899Y-109407125D02*
X205284756Y-109407125D01*
X205284756Y-109407125D02*
X205357328Y-109443411D01*
X205357328Y-109443411D02*
X205393613Y-109479696D01*
X205393613Y-109479696D02*
X205429899Y-109552268D01*
X205429899Y-109552268D02*
X205429899Y-109733696D01*
X205429899Y-109733696D02*
X205393613Y-109806268D01*
X205393613Y-109806268D02*
X205357328Y-109842554D01*
X205357328Y-109842554D02*
X205284756Y-109878839D01*
X205284756Y-109878839D02*
X205067042Y-109878839D01*
X205067042Y-109878839D02*
X204994470Y-109842554D01*
X204994470Y-109842554D02*
X204958185Y-109806268D01*
X205756470Y-109806268D02*
X205792756Y-109842554D01*
X205792756Y-109842554D02*
X205756470Y-109878839D01*
X205756470Y-109878839D02*
X205720184Y-109842554D01*
X205720184Y-109842554D02*
X205756470Y-109806268D01*
X205756470Y-109806268D02*
X205756470Y-109878839D01*
X206046756Y-109116839D02*
X206518470Y-109116839D01*
X206518470Y-109116839D02*
X206264470Y-109407125D01*
X206264470Y-109407125D02*
X206373327Y-109407125D01*
X206373327Y-109407125D02*
X206445899Y-109443411D01*
X206445899Y-109443411D02*
X206482184Y-109479696D01*
X206482184Y-109479696D02*
X206518470Y-109552268D01*
X206518470Y-109552268D02*
X206518470Y-109733696D01*
X206518470Y-109733696D02*
X206482184Y-109806268D01*
X206482184Y-109806268D02*
X206445899Y-109842554D01*
X206445899Y-109842554D02*
X206373327Y-109878839D01*
X206373327Y-109878839D02*
X206155613Y-109878839D01*
X206155613Y-109878839D02*
X206083041Y-109842554D01*
X206083041Y-109842554D02*
X206046756Y-109806268D01*
X206736184Y-109116839D02*
X206990184Y-109878839D01*
X206990184Y-109878839D02*
X207244184Y-109116839D01*
D11*
X168000628Y-91178113D02*
X168677962Y-93210113D01*
X168677962Y-93210113D02*
X169355295Y-91178113D01*
X170806723Y-93113352D02*
X170613199Y-93210113D01*
X170613199Y-93210113D02*
X170226152Y-93210113D01*
X170226152Y-93210113D02*
X170032628Y-93113352D01*
X170032628Y-93113352D02*
X169935866Y-92919828D01*
X169935866Y-92919828D02*
X169935866Y-92145732D01*
X169935866Y-92145732D02*
X170032628Y-91952209D01*
X170032628Y-91952209D02*
X170226152Y-91855447D01*
X170226152Y-91855447D02*
X170613199Y-91855447D01*
X170613199Y-91855447D02*
X170806723Y-91952209D01*
X170806723Y-91952209D02*
X170903485Y-92145732D01*
X170903485Y-92145732D02*
X170903485Y-92339256D01*
X170903485Y-92339256D02*
X169935866Y-92532780D01*
X171774342Y-93210113D02*
X171774342Y-91855447D01*
X171774342Y-92242494D02*
X171871104Y-92048971D01*
X171871104Y-92048971D02*
X171967866Y-91952209D01*
X171967866Y-91952209D02*
X172161390Y-91855447D01*
X172161390Y-91855447D02*
X172354913Y-91855447D01*
X172935485Y-93113352D02*
X173129009Y-93210113D01*
X173129009Y-93210113D02*
X173516057Y-93210113D01*
X173516057Y-93210113D02*
X173709580Y-93113352D01*
X173709580Y-93113352D02*
X173806342Y-92919828D01*
X173806342Y-92919828D02*
X173806342Y-92823066D01*
X173806342Y-92823066D02*
X173709580Y-92629542D01*
X173709580Y-92629542D02*
X173516057Y-92532780D01*
X173516057Y-92532780D02*
X173225771Y-92532780D01*
X173225771Y-92532780D02*
X173032247Y-92436018D01*
X173032247Y-92436018D02*
X172935485Y-92242494D01*
X172935485Y-92242494D02*
X172935485Y-92145732D01*
X172935485Y-92145732D02*
X173032247Y-91952209D01*
X173032247Y-91952209D02*
X173225771Y-91855447D01*
X173225771Y-91855447D02*
X173516057Y-91855447D01*
X173516057Y-91855447D02*
X173709580Y-91952209D01*
X174677199Y-93210113D02*
X174677199Y-91855447D01*
X174677199Y-91178113D02*
X174580437Y-91274875D01*
X174580437Y-91274875D02*
X174677199Y-91371637D01*
X174677199Y-91371637D02*
X174773961Y-91274875D01*
X174773961Y-91274875D02*
X174677199Y-91178113D01*
X174677199Y-91178113D02*
X174677199Y-91371637D01*
X175935104Y-93210113D02*
X175741580Y-93113352D01*
X175741580Y-93113352D02*
X175644818Y-93016590D01*
X175644818Y-93016590D02*
X175548056Y-92823066D01*
X175548056Y-92823066D02*
X175548056Y-92242494D01*
X175548056Y-92242494D02*
X175644818Y-92048971D01*
X175644818Y-92048971D02*
X175741580Y-91952209D01*
X175741580Y-91952209D02*
X175935104Y-91855447D01*
X175935104Y-91855447D02*
X176225389Y-91855447D01*
X176225389Y-91855447D02*
X176418913Y-91952209D01*
X176418913Y-91952209D02*
X176515675Y-92048971D01*
X176515675Y-92048971D02*
X176612437Y-92242494D01*
X176612437Y-92242494D02*
X176612437Y-92823066D01*
X176612437Y-92823066D02*
X176515675Y-93016590D01*
X176515675Y-93016590D02*
X176418913Y-93113352D01*
X176418913Y-93113352D02*
X176225389Y-93210113D01*
X176225389Y-93210113D02*
X175935104Y-93210113D01*
X177483294Y-91855447D02*
X177483294Y-93210113D01*
X177483294Y-92048971D02*
X177580056Y-91952209D01*
X177580056Y-91952209D02*
X177773580Y-91855447D01*
X177773580Y-91855447D02*
X178063865Y-91855447D01*
X178063865Y-91855447D02*
X178257389Y-91952209D01*
X178257389Y-91952209D02*
X178354151Y-92145732D01*
X178354151Y-92145732D02*
X178354151Y-93210113D01*
X181257008Y-91178113D02*
X181450531Y-91178113D01*
X181450531Y-91178113D02*
X181644055Y-91274875D01*
X181644055Y-91274875D02*
X181740817Y-91371637D01*
X181740817Y-91371637D02*
X181837579Y-91565161D01*
X181837579Y-91565161D02*
X181934341Y-91952209D01*
X181934341Y-91952209D02*
X181934341Y-92436018D01*
X181934341Y-92436018D02*
X181837579Y-92823066D01*
X181837579Y-92823066D02*
X181740817Y-93016590D01*
X181740817Y-93016590D02*
X181644055Y-93113352D01*
X181644055Y-93113352D02*
X181450531Y-93210113D01*
X181450531Y-93210113D02*
X181257008Y-93210113D01*
X181257008Y-93210113D02*
X181063484Y-93113352D01*
X181063484Y-93113352D02*
X180966722Y-93016590D01*
X180966722Y-93016590D02*
X180869960Y-92823066D01*
X180869960Y-92823066D02*
X180773198Y-92436018D01*
X180773198Y-92436018D02*
X180773198Y-91952209D01*
X180773198Y-91952209D02*
X180869960Y-91565161D01*
X180869960Y-91565161D02*
X180966722Y-91371637D01*
X180966722Y-91371637D02*
X181063484Y-91274875D01*
X181063484Y-91274875D02*
X181257008Y-91178113D01*
X182805198Y-93016590D02*
X182901960Y-93113352D01*
X182901960Y-93113352D02*
X182805198Y-93210113D01*
X182805198Y-93210113D02*
X182708436Y-93113352D01*
X182708436Y-93113352D02*
X182805198Y-93016590D01*
X182805198Y-93016590D02*
X182805198Y-93210113D01*
X184837198Y-93210113D02*
X183676055Y-93210113D01*
X184256627Y-93210113D02*
X184256627Y-91178113D01*
X184256627Y-91178113D02*
X184063103Y-91468399D01*
X184063103Y-91468399D02*
X183869579Y-91661923D01*
X183869579Y-91661923D02*
X183676055Y-91758685D01*
D12*
G36*
X169199311Y-86299558D02*
G01*
X169389171Y-86341464D01*
X169556778Y-86408678D01*
X169709573Y-86503256D01*
X169835120Y-86617947D01*
X169936262Y-86754104D01*
X170009668Y-86906998D01*
X170054911Y-87079042D01*
X170070636Y-87274290D01*
X170054787Y-87466574D01*
X170008927Y-87638038D01*
X169934029Y-87792428D01*
X169831656Y-87930076D01*
X169706015Y-88045401D01*
X169554544Y-88139901D01*
X169388384Y-88206943D01*
X169199318Y-88248818D01*
X168983177Y-88263480D01*
X168561073Y-88263480D01*
X168561073Y-89397840D01*
X167921402Y-89397840D01*
X167921402Y-87709236D01*
X168561073Y-87709236D01*
X168983177Y-87709236D01*
X169114505Y-87694534D01*
X169221438Y-87653049D01*
X169309434Y-87585657D01*
X169376528Y-87496809D01*
X169416942Y-87394375D01*
X169430965Y-87274290D01*
X169416938Y-87154209D01*
X169376522Y-87051842D01*
X169309434Y-86963109D01*
X169221424Y-86895607D01*
X169114491Y-86854064D01*
X168983177Y-86839343D01*
X168561073Y-86839343D01*
X168561073Y-87709236D01*
X167921402Y-87709236D01*
X167921402Y-86284913D01*
X168983177Y-86284913D01*
X169199311Y-86299558D01*
G37*
G36*
X170564580Y-89397840D02*
G01*
X170564580Y-87052443D01*
X171183034Y-87052443D01*
X171183034Y-87495950D01*
X171231638Y-87353865D01*
X171305843Y-87236515D01*
X171406742Y-87139916D01*
X171527916Y-87069240D01*
X171670483Y-87025315D01*
X171839640Y-87009823D01*
X172012876Y-87025874D01*
X172159877Y-87071537D01*
X172285776Y-87145284D01*
X172394071Y-87248606D01*
X172478051Y-87372276D01*
X172540506Y-87519726D01*
X172580310Y-87695545D01*
X172594515Y-87905399D01*
X172594515Y-88139901D01*
X171954844Y-88139901D01*
X171954844Y-87948019D01*
X171942772Y-87829626D01*
X171909447Y-87737085D01*
X171856763Y-87664569D01*
X171785403Y-87610486D01*
X171694848Y-87576513D01*
X171579454Y-87564254D01*
X171465206Y-87577790D01*
X171374678Y-87615701D01*
X171302332Y-87677224D01*
X171250198Y-87758084D01*
X171216571Y-87863113D01*
X171204251Y-87999200D01*
X171204251Y-89397840D01*
X170564580Y-89397840D01*
G37*
G36*
X174242860Y-87023831D02*
G01*
X174422623Y-87063649D01*
X174578852Y-87127074D01*
X174720855Y-87216667D01*
X174837959Y-87325689D01*
X174932653Y-87455564D01*
X175001432Y-87600977D01*
X175043773Y-87763902D01*
X175058466Y-87948019D01*
X175058466Y-88502264D01*
X175043769Y-88686505D01*
X175001425Y-88849489D01*
X174932653Y-88994905D01*
X174837971Y-89124663D01*
X174720868Y-89233626D01*
X174578852Y-89323208D01*
X174422623Y-89386634D01*
X174242860Y-89426452D01*
X174035216Y-89440459D01*
X173830348Y-89426549D01*
X173651136Y-89386819D01*
X173493627Y-89323208D01*
X173350295Y-89233512D01*
X173232489Y-89124534D01*
X173137593Y-88994905D01*
X173068821Y-88849489D01*
X173026477Y-88686505D01*
X173011780Y-88502264D01*
X173011780Y-87948019D01*
X173651451Y-87948019D01*
X173651451Y-88502264D01*
X173663738Y-88620620D01*
X173697711Y-88713291D01*
X173751580Y-88786086D01*
X173824261Y-88839948D01*
X173916863Y-88873924D01*
X174035216Y-88886215D01*
X174156317Y-88873781D01*
X174249381Y-88839689D01*
X174320900Y-88786086D01*
X174373583Y-88713452D01*
X174406909Y-88620786D01*
X174418981Y-88502264D01*
X174418981Y-87948019D01*
X174406763Y-87826745D01*
X174373319Y-87733689D01*
X174320900Y-87662335D01*
X174249546Y-87609916D01*
X174156490Y-87576472D01*
X174035216Y-87564254D01*
X173916697Y-87576331D01*
X173824100Y-87609660D01*
X173751580Y-87662335D01*
X173697977Y-87733854D01*
X173663885Y-87826918D01*
X173651451Y-87948019D01*
X173011780Y-87948019D01*
X173026474Y-87763902D01*
X173068814Y-87600977D01*
X173137593Y-87455564D01*
X173232500Y-87325818D01*
X173350308Y-87216781D01*
X173493627Y-87127074D01*
X173651136Y-87063464D01*
X173830348Y-87023734D01*
X174035216Y-87009823D01*
X174242860Y-87023831D01*
G37*
G36*
X175633555Y-90165370D02*
G01*
X175633555Y-89589722D01*
X176315845Y-89589722D01*
X176419292Y-89577296D01*
X176505365Y-89541779D01*
X176578079Y-89483079D01*
X176632878Y-89406660D01*
X176666535Y-89315639D01*
X176678394Y-89205957D01*
X176678394Y-87628277D01*
X175612338Y-87628277D01*
X175612338Y-87052443D01*
X177318064Y-87052443D01*
X177318064Y-89227360D01*
X177300515Y-89442573D01*
X177250833Y-89625022D01*
X177171480Y-89780614D01*
X177062159Y-89913745D01*
X176927230Y-90020848D01*
X176768963Y-90098945D01*
X176582805Y-90148007D01*
X176362746Y-90165370D01*
X175633555Y-90165370D01*
G37*
G36*
X176976733Y-86681520D02*
G01*
X176863418Y-86670641D01*
X176771820Y-86640277D01*
X176697377Y-86591999D01*
X176639940Y-86526107D01*
X176605186Y-86446495D01*
X176592968Y-86348936D01*
X176605186Y-86251376D01*
X176639940Y-86171764D01*
X176697377Y-86105872D01*
X176771820Y-86057594D01*
X176863418Y-86027230D01*
X176976733Y-86016352D01*
X177090171Y-86027238D01*
X177181758Y-86057609D01*
X177256089Y-86105872D01*
X177313525Y-86171764D01*
X177348279Y-86251376D01*
X177360498Y-86348936D01*
X177348279Y-86446495D01*
X177313525Y-86526107D01*
X177256089Y-86591999D01*
X177181758Y-86640262D01*
X177090171Y-86670633D01*
X176976733Y-86681520D01*
G37*
G36*
X179360113Y-87023765D02*
G01*
X179538536Y-87063522D01*
X179694728Y-87127074D01*
X179836731Y-87216667D01*
X179953834Y-87325689D01*
X180048529Y-87455564D01*
X180117307Y-87600977D01*
X180159648Y-87763902D01*
X180174341Y-87948019D01*
X180174341Y-88382965D01*
X178737362Y-88382965D01*
X178737362Y-88502264D01*
X178750899Y-88646535D01*
X178786967Y-88751323D01*
X178841772Y-88826472D01*
X178917855Y-88880716D01*
X179019731Y-88915848D01*
X179155372Y-88928835D01*
X179286381Y-88917609D01*
X179393969Y-88886215D01*
X179476980Y-88830664D01*
X179513454Y-88758169D01*
X180140282Y-88758169D01*
X180093639Y-88904352D01*
X180022892Y-89034083D01*
X179927047Y-89149798D01*
X179803418Y-89252857D01*
X179616370Y-89355301D01*
X179402449Y-89418426D01*
X179155372Y-89440459D01*
X178950501Y-89426586D01*
X178770494Y-89386887D01*
X178611550Y-89323208D01*
X178466911Y-89233392D01*
X178348468Y-89124398D01*
X178253468Y-88994905D01*
X178184696Y-88849489D01*
X178142352Y-88686505D01*
X178127656Y-88502264D01*
X178127656Y-87948019D01*
X178737362Y-87948019D01*
X178737362Y-88003481D01*
X179564635Y-87994919D01*
X179564635Y-87939458D01*
X179552049Y-87797766D01*
X179517649Y-87687854D01*
X179464320Y-87602779D01*
X179389511Y-87538788D01*
X179289281Y-87498190D01*
X179155372Y-87483295D01*
X179021586Y-87498502D01*
X178919600Y-87540318D01*
X178841772Y-87606874D01*
X178785953Y-87694915D01*
X178750300Y-87806491D01*
X178737362Y-87948019D01*
X178127656Y-87948019D01*
X178142349Y-87763902D01*
X178184690Y-87600977D01*
X178253468Y-87455564D01*
X178348480Y-87325954D01*
X178466925Y-87216901D01*
X178611550Y-87127074D01*
X178770494Y-87063395D01*
X178950501Y-87023696D01*
X179155372Y-87009823D01*
X179360113Y-87023765D01*
G37*
G36*
X181747369Y-89440459D02*
G01*
X181542494Y-89426620D01*
X181361760Y-89386950D01*
X181201499Y-89323208D01*
X181055294Y-89233348D01*
X180935372Y-89124335D01*
X180838951Y-88994905D01*
X180769015Y-88849368D01*
X180726008Y-88686395D01*
X180711091Y-88502264D01*
X180711091Y-87948019D01*
X180726117Y-87761159D01*
X180769223Y-87597620D01*
X180838951Y-87453330D01*
X180935240Y-87325176D01*
X181055144Y-87216813D01*
X181201499Y-87127074D01*
X181361760Y-87063332D01*
X181542494Y-87023663D01*
X181747369Y-87009823D01*
X181979567Y-87026165D01*
X182176981Y-87072299D01*
X182345338Y-87145350D01*
X182489215Y-87244512D01*
X182610480Y-87370964D01*
X182699308Y-87517058D01*
X182757382Y-87686340D01*
X182783460Y-87883996D01*
X182160912Y-87883996D01*
X182140803Y-87790211D01*
X182099209Y-87713218D01*
X182035099Y-87649494D01*
X181955757Y-87603358D01*
X181861092Y-87574494D01*
X181747369Y-87564254D01*
X181623110Y-87576464D01*
X181527171Y-87609929D01*
X181453124Y-87662335D01*
X181398226Y-87734034D01*
X181363429Y-87827106D01*
X181350762Y-87948019D01*
X181350762Y-88502264D01*
X181363281Y-88620439D01*
X181397957Y-88713116D01*
X181453124Y-88786086D01*
X181527335Y-88839672D01*
X181623280Y-88873787D01*
X181747369Y-88886215D01*
X181861230Y-88876194D01*
X181955900Y-88847989D01*
X182035099Y-88803022D01*
X182098879Y-88740400D01*
X182140594Y-88662825D01*
X182160912Y-88566286D01*
X182783460Y-88566286D01*
X182757378Y-88764043D01*
X182699299Y-88933385D01*
X182610471Y-89079506D01*
X182489215Y-89205957D01*
X182345349Y-89305034D01*
X182176996Y-89378028D01*
X181979578Y-89424129D01*
X181747369Y-89440459D01*
G37*
G36*
X184501470Y-89397840D02*
G01*
X184323756Y-89383698D01*
X184173791Y-89343773D01*
X184046611Y-89280247D01*
X183938478Y-89193115D01*
X183851424Y-89084992D01*
X183787956Y-88957843D01*
X183748067Y-88807933D01*
X183733939Y-88630309D01*
X183733939Y-87628277D01*
X183102830Y-87628277D01*
X183102830Y-87052443D01*
X183733939Y-87052443D01*
X183733939Y-86391555D01*
X184373424Y-86391555D01*
X184373424Y-87052443D01*
X185290217Y-87052443D01*
X185290217Y-87628277D01*
X184373424Y-87628277D01*
X184373424Y-88608906D01*
X184386278Y-88696100D01*
X184422372Y-88762450D01*
X184480850Y-88806482D01*
X184565306Y-88822192D01*
X185269000Y-88822192D01*
X185269000Y-89397840D01*
X184501470Y-89397840D01*
G37*
G36*
X188282542Y-89397840D02*
G01*
X188282542Y-86284913D01*
X189062914Y-86284913D01*
X189378562Y-87615435D01*
X189694024Y-86284913D01*
X190482957Y-86284913D01*
X190482957Y-89397840D01*
X189898748Y-89397840D01*
X189898748Y-88203924D01*
X189909045Y-87739403D01*
X189939135Y-87302020D01*
X190022327Y-86540818D01*
X189630001Y-88075879D01*
X189118376Y-88075879D01*
X188734611Y-86579157D01*
X188821898Y-87284898D01*
X188855152Y-87721128D01*
X188866751Y-88203924D01*
X188866751Y-89397840D01*
X188282542Y-89397840D01*
G37*
G36*
X192187662Y-87025107D02*
G01*
X192382355Y-87067750D01*
X192544116Y-87134265D01*
X192678346Y-87223109D01*
X192790853Y-87338606D01*
X192871185Y-87473700D01*
X192920992Y-87632294D01*
X192938532Y-87820159D01*
X192938532Y-89397840D01*
X192320265Y-89397840D01*
X192320265Y-88992671D01*
X192276284Y-89122388D01*
X192202605Y-89230681D01*
X192096371Y-89321161D01*
X191970309Y-89385384D01*
X191819379Y-89425989D01*
X191637974Y-89440459D01*
X191464780Y-89426576D01*
X191317526Y-89387244D01*
X191191603Y-89324424D01*
X191083544Y-89237968D01*
X190995248Y-89130587D01*
X190931895Y-89008392D01*
X190892705Y-88868505D01*
X190879005Y-88706988D01*
X190886835Y-88626029D01*
X191497273Y-88626029D01*
X191508173Y-88709838D01*
X191539801Y-88781341D01*
X191593121Y-88843595D01*
X191661956Y-88889089D01*
X191750375Y-88918219D01*
X191863916Y-88928835D01*
X191994039Y-88916568D01*
X192098098Y-88882513D01*
X192181611Y-88828706D01*
X192246668Y-88755090D01*
X192285424Y-88668963D01*
X192298862Y-88566286D01*
X192298862Y-88327503D01*
X191851074Y-88327503D01*
X191740338Y-88337909D01*
X191654808Y-88366368D01*
X191588841Y-88410696D01*
X191538169Y-88471272D01*
X191507816Y-88541990D01*
X191497273Y-88626029D01*
X190886835Y-88626029D01*
X190895668Y-88534710D01*
X190943323Y-88387241D01*
X191020871Y-88259589D01*
X191130444Y-88148463D01*
X191260168Y-88063467D01*
X191417542Y-87999593D01*
X191608063Y-87958505D01*
X191838418Y-87943738D01*
X192298862Y-87943738D01*
X192298862Y-87794476D01*
X192288110Y-87710745D01*
X192257592Y-87643099D01*
X192207108Y-87587704D01*
X192141940Y-87548245D01*
X192056503Y-87522543D01*
X191945061Y-87513073D01*
X191793803Y-87530524D01*
X191686922Y-87577096D01*
X191632953Y-87626023D01*
X191598453Y-87687389D01*
X191582513Y-87764697D01*
X190976901Y-87764697D01*
X190999538Y-87597611D01*
X191052315Y-87452873D01*
X191134852Y-87326112D01*
X191249743Y-87214547D01*
X191383766Y-87128802D01*
X191542481Y-87064960D01*
X191730500Y-87024303D01*
X191953436Y-87009823D01*
X192187662Y-87025107D01*
G37*
G36*
X194903700Y-89397840D02*
G01*
X194741523Y-89385630D01*
X194597543Y-89350451D01*
X194468754Y-89293430D01*
X194352614Y-89214232D01*
X194255754Y-89117373D01*
X194176556Y-89001233D01*
X194119536Y-88872444D01*
X194084356Y-88728464D01*
X194072147Y-88566286D01*
X194072147Y-86860560D01*
X193326020Y-86860560D01*
X193326020Y-86284913D01*
X194711818Y-86284913D01*
X194711818Y-88545070D01*
X194730188Y-88659169D01*
X194782168Y-88745513D01*
X194862503Y-88802510D01*
X194967723Y-88822192D01*
X195628610Y-88822192D01*
X195628610Y-89397840D01*
X194903700Y-89397840D01*
G37*
G36*
X196080121Y-89397840D02*
G01*
X196080121Y-86284913D01*
X196719791Y-86284913D01*
X196719791Y-87939458D01*
X197043814Y-87939458D01*
X197534222Y-87052443D01*
X198237729Y-87052443D01*
X197585403Y-88199644D01*
X198250571Y-89397840D01*
X197534222Y-89397840D01*
X197039533Y-88476766D01*
X196719791Y-88476766D01*
X196719791Y-89397840D01*
X196080121Y-89397840D01*
G37*
G36*
X199614594Y-89440459D02*
G01*
X199378668Y-89422579D01*
X199180920Y-89372317D01*
X199014629Y-89292862D01*
X198874608Y-89184740D01*
X198760534Y-89048865D01*
X198677939Y-88890249D01*
X198626314Y-88704427D01*
X198608094Y-88485327D01*
X198608094Y-87052443D01*
X199247765Y-87052443D01*
X199247765Y-88481047D01*
X199264978Y-88637571D01*
X199310564Y-88746966D01*
X199380624Y-88821976D01*
X199478642Y-88868910D01*
X199614594Y-88886215D01*
X199726584Y-88873591D01*
X199814976Y-88838405D01*
X199885202Y-88781805D01*
X199936346Y-88706477D01*
X199969207Y-88608429D01*
X199981236Y-88481047D01*
X199981236Y-87052443D01*
X200620907Y-87052443D01*
X200620907Y-88485327D01*
X200602458Y-88706648D01*
X200550299Y-88893374D01*
X200467020Y-89051865D01*
X200352160Y-89186787D01*
X200211251Y-89294214D01*
X200044903Y-89373037D01*
X199848156Y-89422796D01*
X199614594Y-89440459D01*
G37*
G36*
X202407034Y-89397840D02*
G01*
X202229321Y-89383698D01*
X202079355Y-89343773D01*
X201952175Y-89280247D01*
X201844042Y-89193115D01*
X201756989Y-89084992D01*
X201693520Y-88957843D01*
X201653631Y-88807933D01*
X201639504Y-88630309D01*
X201639504Y-87628277D01*
X201008394Y-87628277D01*
X201008394Y-87052443D01*
X201639504Y-87052443D01*
X201639504Y-86391555D01*
X202278988Y-86391555D01*
X202278988Y-87052443D01*
X203195781Y-87052443D01*
X203195781Y-87628277D01*
X202278988Y-87628277D01*
X202278988Y-88608906D01*
X202291842Y-88696100D01*
X202327936Y-88762450D01*
X202386414Y-88806482D01*
X202470871Y-88822192D01*
X203174564Y-88822192D01*
X203174564Y-89397840D01*
X202407034Y-89397840D01*
G37*
G36*
X203732531Y-89397840D02*
G01*
X203732531Y-86284913D01*
X204372202Y-86284913D01*
X204372202Y-87052443D01*
X204350799Y-87474733D01*
X204401078Y-87340778D01*
X204475283Y-87228844D01*
X204574693Y-87135635D01*
X204692548Y-87066728D01*
X204826921Y-87024516D01*
X204981908Y-87009823D01*
X205148181Y-87025554D01*
X205292224Y-87070731D01*
X205418445Y-87144440D01*
X205529825Y-87248606D01*
X205617585Y-87372914D01*
X205681959Y-87517548D01*
X205722469Y-87686307D01*
X205736782Y-87883996D01*
X205736782Y-89397840D01*
X205097112Y-89397840D01*
X205097112Y-87948019D01*
X205085255Y-87829460D01*
X205052578Y-87736923D01*
X205001078Y-87664569D01*
X204931265Y-87610169D01*
X204844178Y-87576357D01*
X204734750Y-87564254D01*
X204625192Y-87576357D01*
X204537980Y-87610171D01*
X204468050Y-87664569D01*
X204416656Y-87736909D01*
X204384039Y-87829445D01*
X204372202Y-87948019D01*
X204372202Y-89397840D01*
X203732531Y-89397840D01*
G37*
D10*
X202381899Y-113471125D02*
X202309328Y-113434839D01*
X202309328Y-113434839D02*
X202200470Y-113434839D01*
X202200470Y-113434839D02*
X202091613Y-113471125D01*
X202091613Y-113471125D02*
X202019042Y-113543696D01*
X202019042Y-113543696D02*
X201982756Y-113616268D01*
X201982756Y-113616268D02*
X201946470Y-113761411D01*
X201946470Y-113761411D02*
X201946470Y-113870268D01*
X201946470Y-113870268D02*
X201982756Y-114015411D01*
X201982756Y-114015411D02*
X202019042Y-114087982D01*
X202019042Y-114087982D02*
X202091613Y-114160554D01*
X202091613Y-114160554D02*
X202200470Y-114196839D01*
X202200470Y-114196839D02*
X202273042Y-114196839D01*
X202273042Y-114196839D02*
X202381899Y-114160554D01*
X202381899Y-114160554D02*
X202418185Y-114124268D01*
X202418185Y-114124268D02*
X202418185Y-113870268D01*
X202418185Y-113870268D02*
X202273042Y-113870268D01*
X202744756Y-114196839D02*
X202744756Y-113434839D01*
X202744756Y-113434839D02*
X203180185Y-114196839D01*
X203180185Y-114196839D02*
X203180185Y-113434839D01*
X203543042Y-114196839D02*
X203543042Y-113434839D01*
X203543042Y-113434839D02*
X203724471Y-113434839D01*
X203724471Y-113434839D02*
X203833328Y-113471125D01*
X203833328Y-113471125D02*
X203905899Y-113543696D01*
X203905899Y-113543696D02*
X203942185Y-113616268D01*
X203942185Y-113616268D02*
X203978471Y-113761411D01*
X203978471Y-113761411D02*
X203978471Y-113870268D01*
X203978471Y-113870268D02*
X203942185Y-114015411D01*
X203942185Y-114015411D02*
X203905899Y-114087982D01*
X203905899Y-114087982D02*
X203833328Y-114160554D01*
X203833328Y-114160554D02*
X203724471Y-114196839D01*
X203724471Y-114196839D02*
X203543042Y-114196839D01*
X163519899Y-72323125D02*
X163447328Y-72286839D01*
X163447328Y-72286839D02*
X163338470Y-72286839D01*
X163338470Y-72286839D02*
X163229613Y-72323125D01*
X163229613Y-72323125D02*
X163157042Y-72395696D01*
X163157042Y-72395696D02*
X163120756Y-72468268D01*
X163120756Y-72468268D02*
X163084470Y-72613411D01*
X163084470Y-72613411D02*
X163084470Y-72722268D01*
X163084470Y-72722268D02*
X163120756Y-72867411D01*
X163120756Y-72867411D02*
X163157042Y-72939982D01*
X163157042Y-72939982D02*
X163229613Y-73012554D01*
X163229613Y-73012554D02*
X163338470Y-73048839D01*
X163338470Y-73048839D02*
X163411042Y-73048839D01*
X163411042Y-73048839D02*
X163519899Y-73012554D01*
X163519899Y-73012554D02*
X163556185Y-72976268D01*
X163556185Y-72976268D02*
X163556185Y-72722268D01*
X163556185Y-72722268D02*
X163411042Y-72722268D01*
X163882756Y-73048839D02*
X163882756Y-72286839D01*
X163882756Y-72286839D02*
X164318185Y-73048839D01*
X164318185Y-73048839D02*
X164318185Y-72286839D01*
X164681042Y-73048839D02*
X164681042Y-72286839D01*
X164681042Y-72286839D02*
X164862471Y-72286839D01*
X164862471Y-72286839D02*
X164971328Y-72323125D01*
X164971328Y-72323125D02*
X165043899Y-72395696D01*
X165043899Y-72395696D02*
X165080185Y-72468268D01*
X165080185Y-72468268D02*
X165116471Y-72613411D01*
X165116471Y-72613411D02*
X165116471Y-72722268D01*
X165116471Y-72722268D02*
X165080185Y-72867411D01*
X165080185Y-72867411D02*
X165043899Y-72939982D01*
X165043899Y-72939982D02*
X164971328Y-73012554D01*
X164971328Y-73012554D02*
X164862471Y-73048839D01*
X164862471Y-73048839D02*
X164681042Y-73048839D01*
D12*
G36*
X187088033Y-92641443D02*
G01*
X187088033Y-92243409D01*
X187997754Y-92243409D01*
X187997754Y-92641443D01*
X187088033Y-92641443D01*
G37*
G36*
X191037429Y-92162075D02*
G01*
X191098397Y-92196508D01*
X191127527Y-92231225D01*
X191145766Y-92276121D01*
X191152370Y-92334356D01*
X191145831Y-92392747D01*
X191127628Y-92438737D01*
X191098397Y-92475182D01*
X191037197Y-92511702D01*
X190953477Y-92524812D01*
X190871881Y-92511855D01*
X190809798Y-92475182D01*
X190779764Y-92438630D01*
X190761137Y-92392637D01*
X190754460Y-92334356D01*
X190761202Y-92276236D01*
X190779864Y-92231334D01*
X190809798Y-92196508D01*
X190871659Y-92161926D01*
X190953477Y-92149608D01*
X191037429Y-92162075D01*
G37*
G36*
X191091906Y-91286200D02*
G01*
X191211748Y-91312745D01*
X191315901Y-91355029D01*
X191410570Y-91414758D01*
X191488639Y-91487439D01*
X191551769Y-91574022D01*
X191597621Y-91670964D01*
X191625848Y-91779581D01*
X191635644Y-91902326D01*
X191635644Y-92783509D01*
X191625846Y-92906337D01*
X191597617Y-93014993D01*
X191551769Y-93111936D01*
X191488647Y-93198442D01*
X191410579Y-93271084D01*
X191315901Y-93330805D01*
X191211748Y-93373089D01*
X191091906Y-93399634D01*
X190953477Y-93408973D01*
X190816899Y-93399699D01*
X190697424Y-93373212D01*
X190592418Y-93330805D01*
X190496863Y-93271008D01*
X190418326Y-93198356D01*
X190355062Y-93111936D01*
X190309214Y-93014993D01*
X190280984Y-92906337D01*
X190271187Y-92783509D01*
X190271187Y-91902326D01*
X190669096Y-91902326D01*
X190669096Y-92783509D01*
X190678204Y-92859725D01*
X190703903Y-92921159D01*
X190745899Y-92971235D01*
X190800793Y-93008027D01*
X190868797Y-93031170D01*
X190953477Y-93039476D01*
X191039990Y-93031077D01*
X191108268Y-93007856D01*
X191162296Y-92971235D01*
X191203483Y-92921264D01*
X191228761Y-92859831D01*
X191237734Y-92783509D01*
X191237734Y-91902326D01*
X191228758Y-91826007D01*
X191203479Y-91764620D01*
X191162296Y-91714724D01*
X191108268Y-91678102D01*
X191039990Y-91654881D01*
X190953477Y-91646482D01*
X190866879Y-91654881D01*
X190798517Y-91678102D01*
X190744410Y-91714724D01*
X190703301Y-91764610D01*
X190678060Y-91825997D01*
X190669096Y-91902326D01*
X190271187Y-91902326D01*
X190280982Y-91779581D01*
X190309209Y-91670964D01*
X190355062Y-91574022D01*
X190418333Y-91487525D01*
X190496872Y-91414834D01*
X190592418Y-91355029D01*
X190697424Y-91312622D01*
X190816899Y-91286135D01*
X190953477Y-91276862D01*
X191091906Y-91286200D01*
G37*
G36*
X191879824Y-93380560D02*
G01*
X192419924Y-92570347D01*
X191916798Y-91816962D01*
X192391511Y-91816962D01*
X192584820Y-92129756D01*
X192627378Y-92212266D01*
X192658769Y-92286091D01*
X192689912Y-92212266D01*
X192732594Y-92129756D01*
X192925903Y-91816962D01*
X193400740Y-91816962D01*
X192900344Y-92570347D01*
X193437590Y-93380560D01*
X192962878Y-93380560D01*
X192735448Y-93010939D01*
X192691401Y-92927188D01*
X192658769Y-92854604D01*
X192627378Y-92927188D01*
X192584820Y-93010939D01*
X192354536Y-93380560D01*
X191879824Y-93380560D01*
G37*
G36*
X195029229Y-93380560D02*
G01*
X194617051Y-93380560D01*
X194617051Y-93099157D01*
X194575062Y-93192353D01*
X194521087Y-93267780D01*
X194454884Y-93327952D01*
X194377482Y-93372306D01*
X194289314Y-93399505D01*
X194187750Y-93408973D01*
X194078877Y-93398205D01*
X193983408Y-93367072D01*
X193898549Y-93315824D01*
X193822472Y-93242712D01*
X193763011Y-93156335D01*
X193719216Y-93055323D01*
X193691563Y-92936944D01*
X193681770Y-92797778D01*
X193681770Y-92414012D01*
X194108218Y-92414012D01*
X194108218Y-92783509D01*
X194116109Y-92862644D01*
X194137854Y-92924419D01*
X194172116Y-92972724D01*
X194218786Y-93008790D01*
X194277753Y-93031354D01*
X194352646Y-93039476D01*
X194431169Y-93030922D01*
X194491814Y-93007335D01*
X194538759Y-92969870D01*
X194572855Y-92919651D01*
X194594762Y-92854286D01*
X194602782Y-92769364D01*
X194602782Y-92428157D01*
X194594762Y-92343321D01*
X194572855Y-92278040D01*
X194538759Y-92227899D01*
X194491804Y-92190361D01*
X194431159Y-92166737D01*
X194352646Y-92158169D01*
X194277643Y-92166150D01*
X194218679Y-92188287D01*
X194172116Y-92223557D01*
X194138028Y-92271005D01*
X194116205Y-92333037D01*
X194108218Y-92414012D01*
X193681770Y-92414012D01*
X193681770Y-92399744D01*
X193691565Y-92260574D01*
X193719220Y-92142218D01*
X193763015Y-92041250D01*
X193822472Y-91954934D01*
X193898557Y-91881761D01*
X193983418Y-91830475D01*
X194078885Y-91799323D01*
X194187750Y-91788548D01*
X194289467Y-91797743D01*
X194377162Y-91824049D01*
X194453519Y-91866716D01*
X194518863Y-91924984D01*
X194572342Y-91998542D01*
X194614197Y-92089928D01*
X194602782Y-91731722D01*
X194602782Y-91305275D01*
X195029229Y-91305275D01*
X195029229Y-93380560D01*
G37*
G36*
X196153304Y-92162075D02*
G01*
X196214273Y-92196508D01*
X196243403Y-92231225D01*
X196261642Y-92276121D01*
X196268246Y-92334356D01*
X196261707Y-92392747D01*
X196243504Y-92438737D01*
X196214273Y-92475182D01*
X196153073Y-92511702D01*
X196069353Y-92524812D01*
X195987756Y-92511855D01*
X195925673Y-92475182D01*
X195895640Y-92438630D01*
X195877012Y-92392637D01*
X195870336Y-92334356D01*
X195877077Y-92276236D01*
X195895740Y-92231334D01*
X195925673Y-92196508D01*
X195987535Y-92161926D01*
X196069353Y-92149608D01*
X196153304Y-92162075D01*
G37*
G36*
X196207782Y-91286200D02*
G01*
X196327624Y-91312745D01*
X196431777Y-91355029D01*
X196526445Y-91414758D01*
X196604515Y-91487439D01*
X196667644Y-91574022D01*
X196713497Y-91670964D01*
X196741724Y-91779581D01*
X196751519Y-91902326D01*
X196751519Y-92783509D01*
X196741722Y-92906337D01*
X196713492Y-93014993D01*
X196667644Y-93111936D01*
X196604523Y-93198442D01*
X196526454Y-93271084D01*
X196431777Y-93330805D01*
X196327624Y-93373089D01*
X196207782Y-93399634D01*
X196069353Y-93408973D01*
X195932774Y-93399699D01*
X195813299Y-93373212D01*
X195708293Y-93330805D01*
X195612739Y-93271008D01*
X195534201Y-93198356D01*
X195470937Y-93111936D01*
X195425089Y-93014993D01*
X195396860Y-92906337D01*
X195387062Y-92783509D01*
X195387062Y-91902326D01*
X195784972Y-91902326D01*
X195784972Y-92783509D01*
X195794080Y-92859725D01*
X195819778Y-92921159D01*
X195861775Y-92971235D01*
X195916669Y-93008027D01*
X195984673Y-93031170D01*
X196069353Y-93039476D01*
X196155865Y-93031077D01*
X196224144Y-93007856D01*
X196278172Y-92971235D01*
X196319359Y-92921264D01*
X196344636Y-92859831D01*
X196353609Y-92783509D01*
X196353609Y-91902326D01*
X196344633Y-91826007D01*
X196319354Y-91764620D01*
X196278172Y-91714724D01*
X196224144Y-91678102D01*
X196155865Y-91654881D01*
X196069353Y-91646482D01*
X195982754Y-91654881D01*
X195914392Y-91678102D01*
X195860286Y-91714724D01*
X195819176Y-91764610D01*
X195793936Y-91825997D01*
X195784972Y-91902326D01*
X195387062Y-91902326D01*
X195396858Y-91779581D01*
X195425085Y-91670964D01*
X195470937Y-91574022D01*
X195534209Y-91487525D01*
X195612747Y-91414834D01*
X195708293Y-91355029D01*
X195813299Y-91312622D01*
X195932774Y-91286135D01*
X196069353Y-91276862D01*
X196207782Y-91286200D01*
G37*
D13*
X172210796Y-112322828D02*
X171496510Y-112322828D01*
X171496510Y-112322828D02*
X171496510Y-110822828D01*
X173282225Y-112251400D02*
X173139368Y-112322828D01*
X173139368Y-112322828D02*
X172853654Y-112322828D01*
X172853654Y-112322828D02*
X172710796Y-112251400D01*
X172710796Y-112251400D02*
X172639368Y-112108542D01*
X172639368Y-112108542D02*
X172639368Y-111537114D01*
X172639368Y-111537114D02*
X172710796Y-111394257D01*
X172710796Y-111394257D02*
X172853654Y-111322828D01*
X172853654Y-111322828D02*
X173139368Y-111322828D01*
X173139368Y-111322828D02*
X173282225Y-111394257D01*
X173282225Y-111394257D02*
X173353654Y-111537114D01*
X173353654Y-111537114D02*
X173353654Y-111679971D01*
X173353654Y-111679971D02*
X172639368Y-111822828D01*
X173782225Y-111322828D02*
X174353653Y-111322828D01*
X173996510Y-112322828D02*
X173996510Y-111037114D01*
X173996510Y-111037114D02*
X174067939Y-110894257D01*
X174067939Y-110894257D02*
X174210796Y-110822828D01*
X174210796Y-110822828D02*
X174353653Y-110822828D01*
X174639368Y-111322828D02*
X175210796Y-111322828D01*
X174853653Y-110822828D02*
X174853653Y-112108542D01*
X174853653Y-112108542D02*
X174925082Y-112251400D01*
X174925082Y-112251400D02*
X175067939Y-112322828D01*
X175067939Y-112322828D02*
X175210796Y-112322828D01*
X175925082Y-112322828D02*
X175782225Y-112251400D01*
X175782225Y-112251400D02*
X175710796Y-112179971D01*
X175710796Y-112179971D02*
X175639368Y-112037114D01*
X175639368Y-112037114D02*
X175639368Y-111608542D01*
X175639368Y-111608542D02*
X175710796Y-111465685D01*
X175710796Y-111465685D02*
X175782225Y-111394257D01*
X175782225Y-111394257D02*
X175925082Y-111322828D01*
X175925082Y-111322828D02*
X176139368Y-111322828D01*
X176139368Y-111322828D02*
X176282225Y-111394257D01*
X176282225Y-111394257D02*
X176353654Y-111465685D01*
X176353654Y-111465685D02*
X176425082Y-111608542D01*
X176425082Y-111608542D02*
X176425082Y-112037114D01*
X176425082Y-112037114D02*
X176353654Y-112179971D01*
X176353654Y-112179971D02*
X176282225Y-112251400D01*
X176282225Y-112251400D02*
X176139368Y-112322828D01*
X176139368Y-112322828D02*
X175925082Y-112322828D01*
X176925082Y-111322828D02*
X177282225Y-112322828D01*
X177282225Y-112322828D02*
X177639368Y-111322828D01*
X178782225Y-112251400D02*
X178639368Y-112322828D01*
X178639368Y-112322828D02*
X178353654Y-112322828D01*
X178353654Y-112322828D02*
X178210796Y-112251400D01*
X178210796Y-112251400D02*
X178139368Y-112108542D01*
X178139368Y-112108542D02*
X178139368Y-111537114D01*
X178139368Y-111537114D02*
X178210796Y-111394257D01*
X178210796Y-111394257D02*
X178353654Y-111322828D01*
X178353654Y-111322828D02*
X178639368Y-111322828D01*
X178639368Y-111322828D02*
X178782225Y-111394257D01*
X178782225Y-111394257D02*
X178853654Y-111537114D01*
X178853654Y-111537114D02*
X178853654Y-111679971D01*
X178853654Y-111679971D02*
X178139368Y-111822828D01*
X179496510Y-112322828D02*
X179496510Y-111322828D01*
X179496510Y-111608542D02*
X179567939Y-111465685D01*
X179567939Y-111465685D02*
X179639368Y-111394257D01*
X179639368Y-111394257D02*
X179782225Y-111322828D01*
X179782225Y-111322828D02*
X179925082Y-111322828D01*
X160574510Y-109806828D02*
X160574510Y-111021114D01*
X160574510Y-111021114D02*
X160645939Y-111163971D01*
X160645939Y-111163971D02*
X160717368Y-111235400D01*
X160717368Y-111235400D02*
X160860225Y-111306828D01*
X160860225Y-111306828D02*
X161145939Y-111306828D01*
X161145939Y-111306828D02*
X161288796Y-111235400D01*
X161288796Y-111235400D02*
X161360225Y-111163971D01*
X161360225Y-111163971D02*
X161431653Y-111021114D01*
X161431653Y-111021114D02*
X161431653Y-109806828D01*
X162074511Y-110878257D02*
X162788797Y-110878257D01*
X161931654Y-111306828D02*
X162431654Y-109806828D01*
X162431654Y-109806828D02*
X162931654Y-111306828D01*
X164288796Y-111306828D02*
X163788796Y-110592542D01*
X163431653Y-111306828D02*
X163431653Y-109806828D01*
X163431653Y-109806828D02*
X164003082Y-109806828D01*
X164003082Y-109806828D02*
X164145939Y-109878257D01*
X164145939Y-109878257D02*
X164217368Y-109949685D01*
X164217368Y-109949685D02*
X164288796Y-110092542D01*
X164288796Y-110092542D02*
X164288796Y-110306828D01*
X164288796Y-110306828D02*
X164217368Y-110449685D01*
X164217368Y-110449685D02*
X164145939Y-110521114D01*
X164145939Y-110521114D02*
X164003082Y-110592542D01*
X164003082Y-110592542D02*
X163431653Y-110592542D01*
X164717368Y-109806828D02*
X165574511Y-109806828D01*
X165145939Y-111306828D02*
X165145939Y-109806828D01*
D10*
X166531613Y-67730839D02*
X166168756Y-67730839D01*
X166168756Y-67730839D02*
X166132470Y-68093696D01*
X166132470Y-68093696D02*
X166168756Y-68057411D01*
X166168756Y-68057411D02*
X166241328Y-68021125D01*
X166241328Y-68021125D02*
X166422756Y-68021125D01*
X166422756Y-68021125D02*
X166495328Y-68057411D01*
X166495328Y-68057411D02*
X166531613Y-68093696D01*
X166531613Y-68093696D02*
X166567899Y-68166268D01*
X166567899Y-68166268D02*
X166567899Y-68347696D01*
X166567899Y-68347696D02*
X166531613Y-68420268D01*
X166531613Y-68420268D02*
X166495328Y-68456554D01*
X166495328Y-68456554D02*
X166422756Y-68492839D01*
X166422756Y-68492839D02*
X166241328Y-68492839D01*
X166241328Y-68492839D02*
X166168756Y-68456554D01*
X166168756Y-68456554D02*
X166132470Y-68420268D01*
X166785613Y-67730839D02*
X167039613Y-68492839D01*
X167039613Y-68492839D02*
X167293613Y-67730839D01*
D14*
X105407200Y-85333332D02*
X105454819Y-85190475D01*
X105454819Y-85190475D02*
X105454819Y-84952380D01*
X105454819Y-84952380D02*
X105407200Y-84857142D01*
X105407200Y-84857142D02*
X105359580Y-84809523D01*
X105359580Y-84809523D02*
X105264342Y-84761904D01*
X105264342Y-84761904D02*
X105169104Y-84761904D01*
X105169104Y-84761904D02*
X105073866Y-84809523D01*
X105073866Y-84809523D02*
X105026247Y-84857142D01*
X105026247Y-84857142D02*
X104978628Y-84952380D01*
X104978628Y-84952380D02*
X104931009Y-85142856D01*
X104931009Y-85142856D02*
X104883390Y-85238094D01*
X104883390Y-85238094D02*
X104835771Y-85285713D01*
X104835771Y-85285713D02*
X104740533Y-85333332D01*
X104740533Y-85333332D02*
X104645295Y-85333332D01*
X104645295Y-85333332D02*
X104550057Y-85285713D01*
X104550057Y-85285713D02*
X104502438Y-85238094D01*
X104502438Y-85238094D02*
X104454819Y-85142856D01*
X104454819Y-85142856D02*
X104454819Y-84904761D01*
X104454819Y-84904761D02*
X104502438Y-84761904D01*
X104454819Y-84428570D02*
X105454819Y-84190475D01*
X105454819Y-84190475D02*
X104740533Y-83999999D01*
X104740533Y-83999999D02*
X105454819Y-83809523D01*
X105454819Y-83809523D02*
X104454819Y-83571428D01*
X104550057Y-83238094D02*
X104502438Y-83190475D01*
X104502438Y-83190475D02*
X104454819Y-83095237D01*
X104454819Y-83095237D02*
X104454819Y-82857142D01*
X104454819Y-82857142D02*
X104502438Y-82761904D01*
X104502438Y-82761904D02*
X104550057Y-82714285D01*
X104550057Y-82714285D02*
X104645295Y-82666666D01*
X104645295Y-82666666D02*
X104740533Y-82666666D01*
X104740533Y-82666666D02*
X104883390Y-82714285D01*
X104883390Y-82714285D02*
X105454819Y-83285713D01*
X105454819Y-83285713D02*
X105454819Y-82666666D01*
X132745833Y-83258819D02*
X132412500Y-82782628D01*
X132174405Y-83258819D02*
X132174405Y-82258819D01*
X132174405Y-82258819D02*
X132555357Y-82258819D01*
X132555357Y-82258819D02*
X132650595Y-82306438D01*
X132650595Y-82306438D02*
X132698214Y-82354057D01*
X132698214Y-82354057D02*
X132745833Y-82449295D01*
X132745833Y-82449295D02*
X132745833Y-82592152D01*
X132745833Y-82592152D02*
X132698214Y-82687390D01*
X132698214Y-82687390D02*
X132650595Y-82735009D01*
X132650595Y-82735009D02*
X132555357Y-82782628D01*
X132555357Y-82782628D02*
X132174405Y-82782628D01*
X133126786Y-82354057D02*
X133174405Y-82306438D01*
X133174405Y-82306438D02*
X133269643Y-82258819D01*
X133269643Y-82258819D02*
X133507738Y-82258819D01*
X133507738Y-82258819D02*
X133602976Y-82306438D01*
X133602976Y-82306438D02*
X133650595Y-82354057D01*
X133650595Y-82354057D02*
X133698214Y-82449295D01*
X133698214Y-82449295D02*
X133698214Y-82544533D01*
X133698214Y-82544533D02*
X133650595Y-82687390D01*
X133650595Y-82687390D02*
X133079167Y-83258819D01*
X133079167Y-83258819D02*
X133698214Y-83258819D01*
X190641667Y-66587200D02*
X190784524Y-66634819D01*
X190784524Y-66634819D02*
X191022619Y-66634819D01*
X191022619Y-66634819D02*
X191117857Y-66587200D01*
X191117857Y-66587200D02*
X191165476Y-66539580D01*
X191165476Y-66539580D02*
X191213095Y-66444342D01*
X191213095Y-66444342D02*
X191213095Y-66349104D01*
X191213095Y-66349104D02*
X191165476Y-66253866D01*
X191165476Y-66253866D02*
X191117857Y-66206247D01*
X191117857Y-66206247D02*
X191022619Y-66158628D01*
X191022619Y-66158628D02*
X190832143Y-66111009D01*
X190832143Y-66111009D02*
X190736905Y-66063390D01*
X190736905Y-66063390D02*
X190689286Y-66015771D01*
X190689286Y-66015771D02*
X190641667Y-65920533D01*
X190641667Y-65920533D02*
X190641667Y-65825295D01*
X190641667Y-65825295D02*
X190689286Y-65730057D01*
X190689286Y-65730057D02*
X190736905Y-65682438D01*
X190736905Y-65682438D02*
X190832143Y-65634819D01*
X190832143Y-65634819D02*
X191070238Y-65634819D01*
X191070238Y-65634819D02*
X191213095Y-65682438D01*
X191546429Y-65634819D02*
X191784524Y-66634819D01*
X191784524Y-66634819D02*
X191975000Y-65920533D01*
X191975000Y-65920533D02*
X192165476Y-66634819D01*
X192165476Y-66634819D02*
X192403572Y-65634819D01*
X192689286Y-65634819D02*
X193355952Y-65634819D01*
X193355952Y-65634819D02*
X192927381Y-66634819D01*
X180416667Y-66587200D02*
X180559524Y-66634819D01*
X180559524Y-66634819D02*
X180797619Y-66634819D01*
X180797619Y-66634819D02*
X180892857Y-66587200D01*
X180892857Y-66587200D02*
X180940476Y-66539580D01*
X180940476Y-66539580D02*
X180988095Y-66444342D01*
X180988095Y-66444342D02*
X180988095Y-66349104D01*
X180988095Y-66349104D02*
X180940476Y-66253866D01*
X180940476Y-66253866D02*
X180892857Y-66206247D01*
X180892857Y-66206247D02*
X180797619Y-66158628D01*
X180797619Y-66158628D02*
X180607143Y-66111009D01*
X180607143Y-66111009D02*
X180511905Y-66063390D01*
X180511905Y-66063390D02*
X180464286Y-66015771D01*
X180464286Y-66015771D02*
X180416667Y-65920533D01*
X180416667Y-65920533D02*
X180416667Y-65825295D01*
X180416667Y-65825295D02*
X180464286Y-65730057D01*
X180464286Y-65730057D02*
X180511905Y-65682438D01*
X180511905Y-65682438D02*
X180607143Y-65634819D01*
X180607143Y-65634819D02*
X180845238Y-65634819D01*
X180845238Y-65634819D02*
X180988095Y-65682438D01*
X181321429Y-65634819D02*
X181559524Y-66634819D01*
X181559524Y-66634819D02*
X181750000Y-65920533D01*
X181750000Y-65920533D02*
X181940476Y-66634819D01*
X181940476Y-66634819D02*
X182178572Y-65634819D01*
X182702381Y-66063390D02*
X182607143Y-66015771D01*
X182607143Y-66015771D02*
X182559524Y-65968152D01*
X182559524Y-65968152D02*
X182511905Y-65872914D01*
X182511905Y-65872914D02*
X182511905Y-65825295D01*
X182511905Y-65825295D02*
X182559524Y-65730057D01*
X182559524Y-65730057D02*
X182607143Y-65682438D01*
X182607143Y-65682438D02*
X182702381Y-65634819D01*
X182702381Y-65634819D02*
X182892857Y-65634819D01*
X182892857Y-65634819D02*
X182988095Y-65682438D01*
X182988095Y-65682438D02*
X183035714Y-65730057D01*
X183035714Y-65730057D02*
X183083333Y-65825295D01*
X183083333Y-65825295D02*
X183083333Y-65872914D01*
X183083333Y-65872914D02*
X183035714Y-65968152D01*
X183035714Y-65968152D02*
X182988095Y-66015771D01*
X182988095Y-66015771D02*
X182892857Y-66063390D01*
X182892857Y-66063390D02*
X182702381Y-66063390D01*
X182702381Y-66063390D02*
X182607143Y-66111009D01*
X182607143Y-66111009D02*
X182559524Y-66158628D01*
X182559524Y-66158628D02*
X182511905Y-66253866D01*
X182511905Y-66253866D02*
X182511905Y-66444342D01*
X182511905Y-66444342D02*
X182559524Y-66539580D01*
X182559524Y-66539580D02*
X182607143Y-66587200D01*
X182607143Y-66587200D02*
X182702381Y-66634819D01*
X182702381Y-66634819D02*
X182892857Y-66634819D01*
X182892857Y-66634819D02*
X182988095Y-66587200D01*
X182988095Y-66587200D02*
X183035714Y-66539580D01*
X183035714Y-66539580D02*
X183083333Y-66444342D01*
X183083333Y-66444342D02*
X183083333Y-66253866D01*
X183083333Y-66253866D02*
X183035714Y-66158628D01*
X183035714Y-66158628D02*
X182988095Y-66111009D01*
X182988095Y-66111009D02*
X182892857Y-66063390D01*
X147833333Y-109604819D02*
X147500000Y-109128628D01*
X147261905Y-109604819D02*
X147261905Y-108604819D01*
X147261905Y-108604819D02*
X147642857Y-108604819D01*
X147642857Y-108604819D02*
X147738095Y-108652438D01*
X147738095Y-108652438D02*
X147785714Y-108700057D01*
X147785714Y-108700057D02*
X147833333Y-108795295D01*
X147833333Y-108795295D02*
X147833333Y-108938152D01*
X147833333Y-108938152D02*
X147785714Y-109033390D01*
X147785714Y-109033390D02*
X147738095Y-109081009D01*
X147738095Y-109081009D02*
X147642857Y-109128628D01*
X147642857Y-109128628D02*
X147261905Y-109128628D01*
X148404762Y-109033390D02*
X148309524Y-108985771D01*
X148309524Y-108985771D02*
X148261905Y-108938152D01*
X148261905Y-108938152D02*
X148214286Y-108842914D01*
X148214286Y-108842914D02*
X148214286Y-108795295D01*
X148214286Y-108795295D02*
X148261905Y-108700057D01*
X148261905Y-108700057D02*
X148309524Y-108652438D01*
X148309524Y-108652438D02*
X148404762Y-108604819D01*
X148404762Y-108604819D02*
X148595238Y-108604819D01*
X148595238Y-108604819D02*
X148690476Y-108652438D01*
X148690476Y-108652438D02*
X148738095Y-108700057D01*
X148738095Y-108700057D02*
X148785714Y-108795295D01*
X148785714Y-108795295D02*
X148785714Y-108842914D01*
X148785714Y-108842914D02*
X148738095Y-108938152D01*
X148738095Y-108938152D02*
X148690476Y-108985771D01*
X148690476Y-108985771D02*
X148595238Y-109033390D01*
X148595238Y-109033390D02*
X148404762Y-109033390D01*
X148404762Y-109033390D02*
X148309524Y-109081009D01*
X148309524Y-109081009D02*
X148261905Y-109128628D01*
X148261905Y-109128628D02*
X148214286Y-109223866D01*
X148214286Y-109223866D02*
X148214286Y-109414342D01*
X148214286Y-109414342D02*
X148261905Y-109509580D01*
X148261905Y-109509580D02*
X148309524Y-109557200D01*
X148309524Y-109557200D02*
X148404762Y-109604819D01*
X148404762Y-109604819D02*
X148595238Y-109604819D01*
X148595238Y-109604819D02*
X148690476Y-109557200D01*
X148690476Y-109557200D02*
X148738095Y-109509580D01*
X148738095Y-109509580D02*
X148785714Y-109414342D01*
X148785714Y-109414342D02*
X148785714Y-109223866D01*
X148785714Y-109223866D02*
X148738095Y-109128628D01*
X148738095Y-109128628D02*
X148690476Y-109081009D01*
X148690476Y-109081009D02*
X148595238Y-109033390D01*
X153521580Y-72556666D02*
X153569200Y-72604285D01*
X153569200Y-72604285D02*
X153616819Y-72747142D01*
X153616819Y-72747142D02*
X153616819Y-72842380D01*
X153616819Y-72842380D02*
X153569200Y-72985237D01*
X153569200Y-72985237D02*
X153473961Y-73080475D01*
X153473961Y-73080475D02*
X153378723Y-73128094D01*
X153378723Y-73128094D02*
X153188247Y-73175713D01*
X153188247Y-73175713D02*
X153045390Y-73175713D01*
X153045390Y-73175713D02*
X152854914Y-73128094D01*
X152854914Y-73128094D02*
X152759676Y-73080475D01*
X152759676Y-73080475D02*
X152664438Y-72985237D01*
X152664438Y-72985237D02*
X152616819Y-72842380D01*
X152616819Y-72842380D02*
X152616819Y-72747142D01*
X152616819Y-72747142D02*
X152664438Y-72604285D01*
X152664438Y-72604285D02*
X152712057Y-72556666D01*
X152616819Y-72223332D02*
X152616819Y-71604285D01*
X152616819Y-71604285D02*
X152997771Y-71937618D01*
X152997771Y-71937618D02*
X152997771Y-71794761D01*
X152997771Y-71794761D02*
X153045390Y-71699523D01*
X153045390Y-71699523D02*
X153093009Y-71651904D01*
X153093009Y-71651904D02*
X153188247Y-71604285D01*
X153188247Y-71604285D02*
X153426342Y-71604285D01*
X153426342Y-71604285D02*
X153521580Y-71651904D01*
X153521580Y-71651904D02*
X153569200Y-71699523D01*
X153569200Y-71699523D02*
X153616819Y-71794761D01*
X153616819Y-71794761D02*
X153616819Y-72080475D01*
X153616819Y-72080475D02*
X153569200Y-72175713D01*
X153569200Y-72175713D02*
X153521580Y-72223332D01*
X195071905Y-103834819D02*
X195071905Y-102834819D01*
X195071905Y-102834819D02*
X195310000Y-102834819D01*
X195310000Y-102834819D02*
X195452857Y-102882438D01*
X195452857Y-102882438D02*
X195548095Y-102977676D01*
X195548095Y-102977676D02*
X195595714Y-103072914D01*
X195595714Y-103072914D02*
X195643333Y-103263390D01*
X195643333Y-103263390D02*
X195643333Y-103406247D01*
X195643333Y-103406247D02*
X195595714Y-103596723D01*
X195595714Y-103596723D02*
X195548095Y-103691961D01*
X195548095Y-103691961D02*
X195452857Y-103787200D01*
X195452857Y-103787200D02*
X195310000Y-103834819D01*
X195310000Y-103834819D02*
X195071905Y-103834819D01*
X196500476Y-103168152D02*
X196500476Y-103834819D01*
X196262381Y-102787200D02*
X196024286Y-103501485D01*
X196024286Y-103501485D02*
X196643333Y-103501485D01*
X191738095Y-104154819D02*
X191738095Y-103154819D01*
X192309523Y-104154819D02*
X191880952Y-103583390D01*
X192309523Y-103154819D02*
X191738095Y-103726247D01*
X206727200Y-73583332D02*
X206774819Y-73440475D01*
X206774819Y-73440475D02*
X206774819Y-73202380D01*
X206774819Y-73202380D02*
X206727200Y-73107142D01*
X206727200Y-73107142D02*
X206679580Y-73059523D01*
X206679580Y-73059523D02*
X206584342Y-73011904D01*
X206584342Y-73011904D02*
X206489104Y-73011904D01*
X206489104Y-73011904D02*
X206393866Y-73059523D01*
X206393866Y-73059523D02*
X206346247Y-73107142D01*
X206346247Y-73107142D02*
X206298628Y-73202380D01*
X206298628Y-73202380D02*
X206251009Y-73392856D01*
X206251009Y-73392856D02*
X206203390Y-73488094D01*
X206203390Y-73488094D02*
X206155771Y-73535713D01*
X206155771Y-73535713D02*
X206060533Y-73583332D01*
X206060533Y-73583332D02*
X205965295Y-73583332D01*
X205965295Y-73583332D02*
X205870057Y-73535713D01*
X205870057Y-73535713D02*
X205822438Y-73488094D01*
X205822438Y-73488094D02*
X205774819Y-73392856D01*
X205774819Y-73392856D02*
X205774819Y-73154761D01*
X205774819Y-73154761D02*
X205822438Y-73011904D01*
X205774819Y-72678570D02*
X206774819Y-72440475D01*
X206774819Y-72440475D02*
X206060533Y-72249999D01*
X206060533Y-72249999D02*
X206774819Y-72059523D01*
X206774819Y-72059523D02*
X205774819Y-71821428D01*
X205774819Y-71011904D02*
X205774819Y-71202380D01*
X205774819Y-71202380D02*
X205822438Y-71297618D01*
X205822438Y-71297618D02*
X205870057Y-71345237D01*
X205870057Y-71345237D02*
X206012914Y-71440475D01*
X206012914Y-71440475D02*
X206203390Y-71488094D01*
X206203390Y-71488094D02*
X206584342Y-71488094D01*
X206584342Y-71488094D02*
X206679580Y-71440475D01*
X206679580Y-71440475D02*
X206727200Y-71392856D01*
X206727200Y-71392856D02*
X206774819Y-71297618D01*
X206774819Y-71297618D02*
X206774819Y-71107142D01*
X206774819Y-71107142D02*
X206727200Y-71011904D01*
X206727200Y-71011904D02*
X206679580Y-70964285D01*
X206679580Y-70964285D02*
X206584342Y-70916666D01*
X206584342Y-70916666D02*
X206346247Y-70916666D01*
X206346247Y-70916666D02*
X206251009Y-70964285D01*
X206251009Y-70964285D02*
X206203390Y-71011904D01*
X206203390Y-71011904D02*
X206155771Y-71107142D01*
X206155771Y-71107142D02*
X206155771Y-71297618D01*
X206155771Y-71297618D02*
X206203390Y-71392856D01*
X206203390Y-71392856D02*
X206251009Y-71440475D01*
X206251009Y-71440475D02*
X206346247Y-71488094D01*
X170785714Y-74074819D02*
X170785714Y-73074819D01*
X170785714Y-73074819D02*
X171023809Y-73074819D01*
X171023809Y-73074819D02*
X171166666Y-73122438D01*
X171166666Y-73122438D02*
X171261904Y-73217676D01*
X171261904Y-73217676D02*
X171309523Y-73312914D01*
X171309523Y-73312914D02*
X171357142Y-73503390D01*
X171357142Y-73503390D02*
X171357142Y-73646247D01*
X171357142Y-73646247D02*
X171309523Y-73836723D01*
X171309523Y-73836723D02*
X171261904Y-73931961D01*
X171261904Y-73931961D02*
X171166666Y-74027200D01*
X171166666Y-74027200D02*
X171023809Y-74074819D01*
X171023809Y-74074819D02*
X170785714Y-74074819D01*
X172309523Y-74074819D02*
X171738095Y-74074819D01*
X172023809Y-74074819D02*
X172023809Y-73074819D01*
X172023809Y-73074819D02*
X171928571Y-73217676D01*
X171928571Y-73217676D02*
X171833333Y-73312914D01*
X171833333Y-73312914D02*
X171738095Y-73360533D01*
X173261904Y-74074819D02*
X172690476Y-74074819D01*
X172976190Y-74074819D02*
X172976190Y-73074819D01*
X172976190Y-73074819D02*
X172880952Y-73217676D01*
X172880952Y-73217676D02*
X172785714Y-73312914D01*
X172785714Y-73312914D02*
X172690476Y-73360533D01*
X175548095Y-73754819D02*
X175548095Y-72754819D01*
X176119523Y-73754819D02*
X175690952Y-73183390D01*
X176119523Y-72754819D02*
X175548095Y-73326247D01*
X136833333Y-73304819D02*
X136500000Y-72828628D01*
X136261905Y-73304819D02*
X136261905Y-72304819D01*
X136261905Y-72304819D02*
X136642857Y-72304819D01*
X136642857Y-72304819D02*
X136738095Y-72352438D01*
X136738095Y-72352438D02*
X136785714Y-72400057D01*
X136785714Y-72400057D02*
X136833333Y-72495295D01*
X136833333Y-72495295D02*
X136833333Y-72638152D01*
X136833333Y-72638152D02*
X136785714Y-72733390D01*
X136785714Y-72733390D02*
X136738095Y-72781009D01*
X136738095Y-72781009D02*
X136642857Y-72828628D01*
X136642857Y-72828628D02*
X136261905Y-72828628D01*
X137166667Y-72304819D02*
X137833333Y-72304819D01*
X137833333Y-72304819D02*
X137404762Y-73304819D01*
X152940476Y-90407200D02*
X153083333Y-90454819D01*
X153083333Y-90454819D02*
X153321428Y-90454819D01*
X153321428Y-90454819D02*
X153416666Y-90407200D01*
X153416666Y-90407200D02*
X153464285Y-90359580D01*
X153464285Y-90359580D02*
X153511904Y-90264342D01*
X153511904Y-90264342D02*
X153511904Y-90169104D01*
X153511904Y-90169104D02*
X153464285Y-90073866D01*
X153464285Y-90073866D02*
X153416666Y-90026247D01*
X153416666Y-90026247D02*
X153321428Y-89978628D01*
X153321428Y-89978628D02*
X153130952Y-89931009D01*
X153130952Y-89931009D02*
X153035714Y-89883390D01*
X153035714Y-89883390D02*
X152988095Y-89835771D01*
X152988095Y-89835771D02*
X152940476Y-89740533D01*
X152940476Y-89740533D02*
X152940476Y-89645295D01*
X152940476Y-89645295D02*
X152988095Y-89550057D01*
X152988095Y-89550057D02*
X153035714Y-89502438D01*
X153035714Y-89502438D02*
X153130952Y-89454819D01*
X153130952Y-89454819D02*
X153369047Y-89454819D01*
X153369047Y-89454819D02*
X153511904Y-89502438D01*
X153845238Y-89454819D02*
X154083333Y-90454819D01*
X154083333Y-90454819D02*
X154273809Y-89740533D01*
X154273809Y-89740533D02*
X154464285Y-90454819D01*
X154464285Y-90454819D02*
X154702381Y-89454819D01*
X155607142Y-90454819D02*
X155035714Y-90454819D01*
X155321428Y-90454819D02*
X155321428Y-89454819D01*
X155321428Y-89454819D02*
X155226190Y-89597676D01*
X155226190Y-89597676D02*
X155130952Y-89692914D01*
X155130952Y-89692914D02*
X155035714Y-89740533D01*
X156559523Y-90454819D02*
X155988095Y-90454819D01*
X156273809Y-90454819D02*
X156273809Y-89454819D01*
X156273809Y-89454819D02*
X156178571Y-89597676D01*
X156178571Y-89597676D02*
X156083333Y-89692914D01*
X156083333Y-89692914D02*
X155988095Y-89740533D01*
X144319819Y-93360588D02*
X145129342Y-93360588D01*
X145129342Y-93360588D02*
X145224580Y-93312969D01*
X145224580Y-93312969D02*
X145272200Y-93265350D01*
X145272200Y-93265350D02*
X145319819Y-93170112D01*
X145319819Y-93170112D02*
X145319819Y-92979636D01*
X145319819Y-92979636D02*
X145272200Y-92884398D01*
X145272200Y-92884398D02*
X145224580Y-92836779D01*
X145224580Y-92836779D02*
X145129342Y-92789160D01*
X145129342Y-92789160D02*
X144319819Y-92789160D01*
X145319819Y-91789160D02*
X145319819Y-92360588D01*
X145319819Y-92074874D02*
X144319819Y-92074874D01*
X144319819Y-92074874D02*
X144462676Y-92170112D01*
X144462676Y-92170112D02*
X144557914Y-92265350D01*
X144557914Y-92265350D02*
X144605533Y-92360588D01*
X124833333Y-85539580D02*
X124785714Y-85587200D01*
X124785714Y-85587200D02*
X124642857Y-85634819D01*
X124642857Y-85634819D02*
X124547619Y-85634819D01*
X124547619Y-85634819D02*
X124404762Y-85587200D01*
X124404762Y-85587200D02*
X124309524Y-85491961D01*
X124309524Y-85491961D02*
X124261905Y-85396723D01*
X124261905Y-85396723D02*
X124214286Y-85206247D01*
X124214286Y-85206247D02*
X124214286Y-85063390D01*
X124214286Y-85063390D02*
X124261905Y-84872914D01*
X124261905Y-84872914D02*
X124309524Y-84777676D01*
X124309524Y-84777676D02*
X124404762Y-84682438D01*
X124404762Y-84682438D02*
X124547619Y-84634819D01*
X124547619Y-84634819D02*
X124642857Y-84634819D01*
X124642857Y-84634819D02*
X124785714Y-84682438D01*
X124785714Y-84682438D02*
X124833333Y-84730057D01*
X125690476Y-84634819D02*
X125500000Y-84634819D01*
X125500000Y-84634819D02*
X125404762Y-84682438D01*
X125404762Y-84682438D02*
X125357143Y-84730057D01*
X125357143Y-84730057D02*
X125261905Y-84872914D01*
X125261905Y-84872914D02*
X125214286Y-85063390D01*
X125214286Y-85063390D02*
X125214286Y-85444342D01*
X125214286Y-85444342D02*
X125261905Y-85539580D01*
X125261905Y-85539580D02*
X125309524Y-85587200D01*
X125309524Y-85587200D02*
X125404762Y-85634819D01*
X125404762Y-85634819D02*
X125595238Y-85634819D01*
X125595238Y-85634819D02*
X125690476Y-85587200D01*
X125690476Y-85587200D02*
X125738095Y-85539580D01*
X125738095Y-85539580D02*
X125785714Y-85444342D01*
X125785714Y-85444342D02*
X125785714Y-85206247D01*
X125785714Y-85206247D02*
X125738095Y-85111009D01*
X125738095Y-85111009D02*
X125690476Y-85063390D01*
X125690476Y-85063390D02*
X125595238Y-85015771D01*
X125595238Y-85015771D02*
X125404762Y-85015771D01*
X125404762Y-85015771D02*
X125309524Y-85063390D01*
X125309524Y-85063390D02*
X125261905Y-85111009D01*
X125261905Y-85111009D02*
X125214286Y-85206247D01*
X141819819Y-70354285D02*
X140819819Y-70354285D01*
X140819819Y-70354285D02*
X140819819Y-70116190D01*
X140819819Y-70116190D02*
X140867438Y-69973333D01*
X140867438Y-69973333D02*
X140962676Y-69878095D01*
X140962676Y-69878095D02*
X141057914Y-69830476D01*
X141057914Y-69830476D02*
X141248390Y-69782857D01*
X141248390Y-69782857D02*
X141391247Y-69782857D01*
X141391247Y-69782857D02*
X141581723Y-69830476D01*
X141581723Y-69830476D02*
X141676961Y-69878095D01*
X141676961Y-69878095D02*
X141772200Y-69973333D01*
X141772200Y-69973333D02*
X141819819Y-70116190D01*
X141819819Y-70116190D02*
X141819819Y-70354285D01*
X141819819Y-68830476D02*
X141819819Y-69401904D01*
X141819819Y-69116190D02*
X140819819Y-69116190D01*
X140819819Y-69116190D02*
X140962676Y-69211428D01*
X140962676Y-69211428D02*
X141057914Y-69306666D01*
X141057914Y-69306666D02*
X141105533Y-69401904D01*
X140819819Y-67925714D02*
X140819819Y-68401904D01*
X140819819Y-68401904D02*
X141296009Y-68449523D01*
X141296009Y-68449523D02*
X141248390Y-68401904D01*
X141248390Y-68401904D02*
X141200771Y-68306666D01*
X141200771Y-68306666D02*
X141200771Y-68068571D01*
X141200771Y-68068571D02*
X141248390Y-67973333D01*
X141248390Y-67973333D02*
X141296009Y-67925714D01*
X141296009Y-67925714D02*
X141391247Y-67878095D01*
X141391247Y-67878095D02*
X141629342Y-67878095D01*
X141629342Y-67878095D02*
X141724580Y-67925714D01*
X141724580Y-67925714D02*
X141772200Y-67973333D01*
X141772200Y-67973333D02*
X141819819Y-68068571D01*
X141819819Y-68068571D02*
X141819819Y-68306666D01*
X141819819Y-68306666D02*
X141772200Y-68401904D01*
X141772200Y-68401904D02*
X141724580Y-68449523D01*
X160833333Y-63359580D02*
X160785714Y-63407200D01*
X160785714Y-63407200D02*
X160642857Y-63454819D01*
X160642857Y-63454819D02*
X160547619Y-63454819D01*
X160547619Y-63454819D02*
X160404762Y-63407200D01*
X160404762Y-63407200D02*
X160309524Y-63311961D01*
X160309524Y-63311961D02*
X160261905Y-63216723D01*
X160261905Y-63216723D02*
X160214286Y-63026247D01*
X160214286Y-63026247D02*
X160214286Y-62883390D01*
X160214286Y-62883390D02*
X160261905Y-62692914D01*
X160261905Y-62692914D02*
X160309524Y-62597676D01*
X160309524Y-62597676D02*
X160404762Y-62502438D01*
X160404762Y-62502438D02*
X160547619Y-62454819D01*
X160547619Y-62454819D02*
X160642857Y-62454819D01*
X160642857Y-62454819D02*
X160785714Y-62502438D01*
X160785714Y-62502438D02*
X160833333Y-62550057D01*
X161166667Y-62454819D02*
X161833333Y-62454819D01*
X161833333Y-62454819D02*
X161404762Y-63454819D01*
X191261905Y-74074819D02*
X191261905Y-73074819D01*
X191261905Y-73074819D02*
X191500000Y-73074819D01*
X191500000Y-73074819D02*
X191642857Y-73122438D01*
X191642857Y-73122438D02*
X191738095Y-73217676D01*
X191738095Y-73217676D02*
X191785714Y-73312914D01*
X191785714Y-73312914D02*
X191833333Y-73503390D01*
X191833333Y-73503390D02*
X191833333Y-73646247D01*
X191833333Y-73646247D02*
X191785714Y-73836723D01*
X191785714Y-73836723D02*
X191738095Y-73931961D01*
X191738095Y-73931961D02*
X191642857Y-74027200D01*
X191642857Y-74027200D02*
X191500000Y-74074819D01*
X191500000Y-74074819D02*
X191261905Y-74074819D01*
X192166667Y-73074819D02*
X192833333Y-73074819D01*
X192833333Y-73074819D02*
X192404762Y-74074819D01*
X195548095Y-73754819D02*
X195548095Y-72754819D01*
X196119523Y-73754819D02*
X195690952Y-73183390D01*
X196119523Y-72754819D02*
X195548095Y-73326247D01*
X165954819Y-114833333D02*
X166669104Y-114833333D01*
X166669104Y-114833333D02*
X166811961Y-114880952D01*
X166811961Y-114880952D02*
X166907200Y-114976190D01*
X166907200Y-114976190D02*
X166954819Y-115119047D01*
X166954819Y-115119047D02*
X166954819Y-115214285D01*
X165954819Y-113928571D02*
X165954819Y-114119047D01*
X165954819Y-114119047D02*
X166002438Y-114214285D01*
X166002438Y-114214285D02*
X166050057Y-114261904D01*
X166050057Y-114261904D02*
X166192914Y-114357142D01*
X166192914Y-114357142D02*
X166383390Y-114404761D01*
X166383390Y-114404761D02*
X166764342Y-114404761D01*
X166764342Y-114404761D02*
X166859580Y-114357142D01*
X166859580Y-114357142D02*
X166907200Y-114309523D01*
X166907200Y-114309523D02*
X166954819Y-114214285D01*
X166954819Y-114214285D02*
X166954819Y-114023809D01*
X166954819Y-114023809D02*
X166907200Y-113928571D01*
X166907200Y-113928571D02*
X166859580Y-113880952D01*
X166859580Y-113880952D02*
X166764342Y-113833333D01*
X166764342Y-113833333D02*
X166526247Y-113833333D01*
X166526247Y-113833333D02*
X166431009Y-113880952D01*
X166431009Y-113880952D02*
X166383390Y-113928571D01*
X166383390Y-113928571D02*
X166335771Y-114023809D01*
X166335771Y-114023809D02*
X166335771Y-114214285D01*
X166335771Y-114214285D02*
X166383390Y-114309523D01*
X166383390Y-114309523D02*
X166431009Y-114357142D01*
X166431009Y-114357142D02*
X166526247Y-114404761D01*
X180785714Y-74074819D02*
X180785714Y-73074819D01*
X180785714Y-73074819D02*
X181023809Y-73074819D01*
X181023809Y-73074819D02*
X181166666Y-73122438D01*
X181166666Y-73122438D02*
X181261904Y-73217676D01*
X181261904Y-73217676D02*
X181309523Y-73312914D01*
X181309523Y-73312914D02*
X181357142Y-73503390D01*
X181357142Y-73503390D02*
X181357142Y-73646247D01*
X181357142Y-73646247D02*
X181309523Y-73836723D01*
X181309523Y-73836723D02*
X181261904Y-73931961D01*
X181261904Y-73931961D02*
X181166666Y-74027200D01*
X181166666Y-74027200D02*
X181023809Y-74074819D01*
X181023809Y-74074819D02*
X180785714Y-74074819D01*
X182309523Y-74074819D02*
X181738095Y-74074819D01*
X182023809Y-74074819D02*
X182023809Y-73074819D01*
X182023809Y-73074819D02*
X181928571Y-73217676D01*
X181928571Y-73217676D02*
X181833333Y-73312914D01*
X181833333Y-73312914D02*
X181738095Y-73360533D01*
X182928571Y-73074819D02*
X183023809Y-73074819D01*
X183023809Y-73074819D02*
X183119047Y-73122438D01*
X183119047Y-73122438D02*
X183166666Y-73170057D01*
X183166666Y-73170057D02*
X183214285Y-73265295D01*
X183214285Y-73265295D02*
X183261904Y-73455771D01*
X183261904Y-73455771D02*
X183261904Y-73693866D01*
X183261904Y-73693866D02*
X183214285Y-73884342D01*
X183214285Y-73884342D02*
X183166666Y-73979580D01*
X183166666Y-73979580D02*
X183119047Y-74027200D01*
X183119047Y-74027200D02*
X183023809Y-74074819D01*
X183023809Y-74074819D02*
X182928571Y-74074819D01*
X182928571Y-74074819D02*
X182833333Y-74027200D01*
X182833333Y-74027200D02*
X182785714Y-73979580D01*
X182785714Y-73979580D02*
X182738095Y-73884342D01*
X182738095Y-73884342D02*
X182690476Y-73693866D01*
X182690476Y-73693866D02*
X182690476Y-73455771D01*
X182690476Y-73455771D02*
X182738095Y-73265295D01*
X182738095Y-73265295D02*
X182785714Y-73170057D01*
X182785714Y-73170057D02*
X182833333Y-73122438D01*
X182833333Y-73122438D02*
X182928571Y-73074819D01*
X185548095Y-73754819D02*
X185548095Y-72754819D01*
X186119523Y-73754819D02*
X185690952Y-73183390D01*
X186119523Y-72754819D02*
X185548095Y-73326247D01*
X160833333Y-66359580D02*
X160785714Y-66407200D01*
X160785714Y-66407200D02*
X160642857Y-66454819D01*
X160642857Y-66454819D02*
X160547619Y-66454819D01*
X160547619Y-66454819D02*
X160404762Y-66407200D01*
X160404762Y-66407200D02*
X160309524Y-66311961D01*
X160309524Y-66311961D02*
X160261905Y-66216723D01*
X160261905Y-66216723D02*
X160214286Y-66026247D01*
X160214286Y-66026247D02*
X160214286Y-65883390D01*
X160214286Y-65883390D02*
X160261905Y-65692914D01*
X160261905Y-65692914D02*
X160309524Y-65597676D01*
X160309524Y-65597676D02*
X160404762Y-65502438D01*
X160404762Y-65502438D02*
X160547619Y-65454819D01*
X160547619Y-65454819D02*
X160642857Y-65454819D01*
X160642857Y-65454819D02*
X160785714Y-65502438D01*
X160785714Y-65502438D02*
X160833333Y-65550057D01*
X161785714Y-66454819D02*
X161214286Y-66454819D01*
X161500000Y-66454819D02*
X161500000Y-65454819D01*
X161500000Y-65454819D02*
X161404762Y-65597676D01*
X161404762Y-65597676D02*
X161309524Y-65692914D01*
X161309524Y-65692914D02*
X161214286Y-65740533D01*
X132199405Y-76804819D02*
X132199405Y-75804819D01*
X132199405Y-75804819D02*
X132437500Y-75804819D01*
X132437500Y-75804819D02*
X132580357Y-75852438D01*
X132580357Y-75852438D02*
X132675595Y-75947676D01*
X132675595Y-75947676D02*
X132723214Y-76042914D01*
X132723214Y-76042914D02*
X132770833Y-76233390D01*
X132770833Y-76233390D02*
X132770833Y-76376247D01*
X132770833Y-76376247D02*
X132723214Y-76566723D01*
X132723214Y-76566723D02*
X132675595Y-76661961D01*
X132675595Y-76661961D02*
X132580357Y-76757200D01*
X132580357Y-76757200D02*
X132437500Y-76804819D01*
X132437500Y-76804819D02*
X132199405Y-76804819D01*
X133247024Y-76804819D02*
X133437500Y-76804819D01*
X133437500Y-76804819D02*
X133532738Y-76757200D01*
X133532738Y-76757200D02*
X133580357Y-76709580D01*
X133580357Y-76709580D02*
X133675595Y-76566723D01*
X133675595Y-76566723D02*
X133723214Y-76376247D01*
X133723214Y-76376247D02*
X133723214Y-75995295D01*
X133723214Y-75995295D02*
X133675595Y-75900057D01*
X133675595Y-75900057D02*
X133627976Y-75852438D01*
X133627976Y-75852438D02*
X133532738Y-75804819D01*
X133532738Y-75804819D02*
X133342262Y-75804819D01*
X133342262Y-75804819D02*
X133247024Y-75852438D01*
X133247024Y-75852438D02*
X133199405Y-75900057D01*
X133199405Y-75900057D02*
X133151786Y-75995295D01*
X133151786Y-75995295D02*
X133151786Y-76233390D01*
X133151786Y-76233390D02*
X133199405Y-76328628D01*
X133199405Y-76328628D02*
X133247024Y-76376247D01*
X133247024Y-76376247D02*
X133342262Y-76423866D01*
X133342262Y-76423866D02*
X133532738Y-76423866D01*
X133532738Y-76423866D02*
X133627976Y-76376247D01*
X133627976Y-76376247D02*
X133675595Y-76328628D01*
X133675595Y-76328628D02*
X133723214Y-76233390D01*
X150920833Y-81104819D02*
X150587500Y-80628628D01*
X150349405Y-81104819D02*
X150349405Y-80104819D01*
X150349405Y-80104819D02*
X150730357Y-80104819D01*
X150730357Y-80104819D02*
X150825595Y-80152438D01*
X150825595Y-80152438D02*
X150873214Y-80200057D01*
X150873214Y-80200057D02*
X150920833Y-80295295D01*
X150920833Y-80295295D02*
X150920833Y-80438152D01*
X150920833Y-80438152D02*
X150873214Y-80533390D01*
X150873214Y-80533390D02*
X150825595Y-80581009D01*
X150825595Y-80581009D02*
X150730357Y-80628628D01*
X150730357Y-80628628D02*
X150349405Y-80628628D01*
X151254167Y-80104819D02*
X151873214Y-80104819D01*
X151873214Y-80104819D02*
X151539881Y-80485771D01*
X151539881Y-80485771D02*
X151682738Y-80485771D01*
X151682738Y-80485771D02*
X151777976Y-80533390D01*
X151777976Y-80533390D02*
X151825595Y-80581009D01*
X151825595Y-80581009D02*
X151873214Y-80676247D01*
X151873214Y-80676247D02*
X151873214Y-80914342D01*
X151873214Y-80914342D02*
X151825595Y-81009580D01*
X151825595Y-81009580D02*
X151777976Y-81057200D01*
X151777976Y-81057200D02*
X151682738Y-81104819D01*
X151682738Y-81104819D02*
X151397024Y-81104819D01*
X151397024Y-81104819D02*
X151301786Y-81057200D01*
X151301786Y-81057200D02*
X151254167Y-81009580D01*
X112454819Y-69238094D02*
X111454819Y-69238094D01*
X111454819Y-69238094D02*
X111454819Y-68999999D01*
X111454819Y-68999999D02*
X111502438Y-68857142D01*
X111502438Y-68857142D02*
X111597676Y-68761904D01*
X111597676Y-68761904D02*
X111692914Y-68714285D01*
X111692914Y-68714285D02*
X111883390Y-68666666D01*
X111883390Y-68666666D02*
X112026247Y-68666666D01*
X112026247Y-68666666D02*
X112216723Y-68714285D01*
X112216723Y-68714285D02*
X112311961Y-68761904D01*
X112311961Y-68761904D02*
X112407200Y-68857142D01*
X112407200Y-68857142D02*
X112454819Y-68999999D01*
X112454819Y-68999999D02*
X112454819Y-69238094D01*
X111454819Y-68333332D02*
X111454819Y-67714285D01*
X111454819Y-67714285D02*
X111835771Y-68047618D01*
X111835771Y-68047618D02*
X111835771Y-67904761D01*
X111835771Y-67904761D02*
X111883390Y-67809523D01*
X111883390Y-67809523D02*
X111931009Y-67761904D01*
X111931009Y-67761904D02*
X112026247Y-67714285D01*
X112026247Y-67714285D02*
X112264342Y-67714285D01*
X112264342Y-67714285D02*
X112359580Y-67761904D01*
X112359580Y-67761904D02*
X112407200Y-67809523D01*
X112407200Y-67809523D02*
X112454819Y-67904761D01*
X112454819Y-67904761D02*
X112454819Y-68190475D01*
X112454819Y-68190475D02*
X112407200Y-68285713D01*
X112407200Y-68285713D02*
X112359580Y-68333332D01*
X112468819Y-74175904D02*
X111468819Y-74175904D01*
X112468819Y-73604476D02*
X111897390Y-74033047D01*
X111468819Y-73604476D02*
X112040247Y-74175904D01*
X184451905Y-103834819D02*
X184451905Y-102834819D01*
X184451905Y-102834819D02*
X184690000Y-102834819D01*
X184690000Y-102834819D02*
X184832857Y-102882438D01*
X184832857Y-102882438D02*
X184928095Y-102977676D01*
X184928095Y-102977676D02*
X184975714Y-103072914D01*
X184975714Y-103072914D02*
X185023333Y-103263390D01*
X185023333Y-103263390D02*
X185023333Y-103406247D01*
X185023333Y-103406247D02*
X184975714Y-103596723D01*
X184975714Y-103596723D02*
X184928095Y-103691961D01*
X184928095Y-103691961D02*
X184832857Y-103787200D01*
X184832857Y-103787200D02*
X184690000Y-103834819D01*
X184690000Y-103834819D02*
X184451905Y-103834819D01*
X185928095Y-102834819D02*
X185451905Y-102834819D01*
X185451905Y-102834819D02*
X185404286Y-103311009D01*
X185404286Y-103311009D02*
X185451905Y-103263390D01*
X185451905Y-103263390D02*
X185547143Y-103215771D01*
X185547143Y-103215771D02*
X185785238Y-103215771D01*
X185785238Y-103215771D02*
X185880476Y-103263390D01*
X185880476Y-103263390D02*
X185928095Y-103311009D01*
X185928095Y-103311009D02*
X185975714Y-103406247D01*
X185975714Y-103406247D02*
X185975714Y-103644342D01*
X185975714Y-103644342D02*
X185928095Y-103739580D01*
X185928095Y-103739580D02*
X185880476Y-103787200D01*
X185880476Y-103787200D02*
X185785238Y-103834819D01*
X185785238Y-103834819D02*
X185547143Y-103834819D01*
X185547143Y-103834819D02*
X185451905Y-103787200D01*
X185451905Y-103787200D02*
X185404286Y-103739580D01*
X181118095Y-104154819D02*
X181118095Y-103154819D01*
X181689523Y-104154819D02*
X181260952Y-103583390D01*
X181689523Y-103154819D02*
X181118095Y-103726247D01*
X153416667Y-100907200D02*
X153559524Y-100954819D01*
X153559524Y-100954819D02*
X153797619Y-100954819D01*
X153797619Y-100954819D02*
X153892857Y-100907200D01*
X153892857Y-100907200D02*
X153940476Y-100859580D01*
X153940476Y-100859580D02*
X153988095Y-100764342D01*
X153988095Y-100764342D02*
X153988095Y-100669104D01*
X153988095Y-100669104D02*
X153940476Y-100573866D01*
X153940476Y-100573866D02*
X153892857Y-100526247D01*
X153892857Y-100526247D02*
X153797619Y-100478628D01*
X153797619Y-100478628D02*
X153607143Y-100431009D01*
X153607143Y-100431009D02*
X153511905Y-100383390D01*
X153511905Y-100383390D02*
X153464286Y-100335771D01*
X153464286Y-100335771D02*
X153416667Y-100240533D01*
X153416667Y-100240533D02*
X153416667Y-100145295D01*
X153416667Y-100145295D02*
X153464286Y-100050057D01*
X153464286Y-100050057D02*
X153511905Y-100002438D01*
X153511905Y-100002438D02*
X153607143Y-99954819D01*
X153607143Y-99954819D02*
X153845238Y-99954819D01*
X153845238Y-99954819D02*
X153988095Y-100002438D01*
X154321429Y-99954819D02*
X154559524Y-100954819D01*
X154559524Y-100954819D02*
X154750000Y-100240533D01*
X154750000Y-100240533D02*
X154940476Y-100954819D01*
X154940476Y-100954819D02*
X155178572Y-99954819D01*
X155607143Y-100954819D02*
X155797619Y-100954819D01*
X155797619Y-100954819D02*
X155892857Y-100907200D01*
X155892857Y-100907200D02*
X155940476Y-100859580D01*
X155940476Y-100859580D02*
X156035714Y-100716723D01*
X156035714Y-100716723D02*
X156083333Y-100526247D01*
X156083333Y-100526247D02*
X156083333Y-100145295D01*
X156083333Y-100145295D02*
X156035714Y-100050057D01*
X156035714Y-100050057D02*
X155988095Y-100002438D01*
X155988095Y-100002438D02*
X155892857Y-99954819D01*
X155892857Y-99954819D02*
X155702381Y-99954819D01*
X155702381Y-99954819D02*
X155607143Y-100002438D01*
X155607143Y-100002438D02*
X155559524Y-100050057D01*
X155559524Y-100050057D02*
X155511905Y-100145295D01*
X155511905Y-100145295D02*
X155511905Y-100383390D01*
X155511905Y-100383390D02*
X155559524Y-100478628D01*
X155559524Y-100478628D02*
X155607143Y-100526247D01*
X155607143Y-100526247D02*
X155702381Y-100573866D01*
X155702381Y-100573866D02*
X155892857Y-100573866D01*
X155892857Y-100573866D02*
X155988095Y-100526247D01*
X155988095Y-100526247D02*
X156035714Y-100478628D01*
X156035714Y-100478628D02*
X156083333Y-100383390D01*
X199334819Y-73013094D02*
X198334819Y-73013094D01*
X198334819Y-73013094D02*
X198334819Y-72774999D01*
X198334819Y-72774999D02*
X198382438Y-72632142D01*
X198382438Y-72632142D02*
X198477676Y-72536904D01*
X198477676Y-72536904D02*
X198572914Y-72489285D01*
X198572914Y-72489285D02*
X198763390Y-72441666D01*
X198763390Y-72441666D02*
X198906247Y-72441666D01*
X198906247Y-72441666D02*
X199096723Y-72489285D01*
X199096723Y-72489285D02*
X199191961Y-72536904D01*
X199191961Y-72536904D02*
X199287200Y-72632142D01*
X199287200Y-72632142D02*
X199334819Y-72774999D01*
X199334819Y-72774999D02*
X199334819Y-73013094D01*
X198334819Y-71584523D02*
X198334819Y-71774999D01*
X198334819Y-71774999D02*
X198382438Y-71870237D01*
X198382438Y-71870237D02*
X198430057Y-71917856D01*
X198430057Y-71917856D02*
X198572914Y-72013094D01*
X198572914Y-72013094D02*
X198763390Y-72060713D01*
X198763390Y-72060713D02*
X199144342Y-72060713D01*
X199144342Y-72060713D02*
X199239580Y-72013094D01*
X199239580Y-72013094D02*
X199287200Y-71965475D01*
X199287200Y-71965475D02*
X199334819Y-71870237D01*
X199334819Y-71870237D02*
X199334819Y-71679761D01*
X199334819Y-71679761D02*
X199287200Y-71584523D01*
X199287200Y-71584523D02*
X199239580Y-71536904D01*
X199239580Y-71536904D02*
X199144342Y-71489285D01*
X199144342Y-71489285D02*
X198906247Y-71489285D01*
X198906247Y-71489285D02*
X198811009Y-71536904D01*
X198811009Y-71536904D02*
X198763390Y-71584523D01*
X198763390Y-71584523D02*
X198715771Y-71679761D01*
X198715771Y-71679761D02*
X198715771Y-71870237D01*
X198715771Y-71870237D02*
X198763390Y-71965475D01*
X198763390Y-71965475D02*
X198811009Y-72013094D01*
X198811009Y-72013094D02*
X198906247Y-72060713D01*
X199654819Y-76346904D02*
X198654819Y-76346904D01*
X199654819Y-75775476D02*
X199083390Y-76204047D01*
X198654819Y-75775476D02*
X199226247Y-76346904D01*
X178954819Y-114833333D02*
X179669104Y-114833333D01*
X179669104Y-114833333D02*
X179811961Y-114880952D01*
X179811961Y-114880952D02*
X179907200Y-114976190D01*
X179907200Y-114976190D02*
X179954819Y-115119047D01*
X179954819Y-115119047D02*
X179954819Y-115214285D01*
X178954819Y-114452380D02*
X178954819Y-113785714D01*
X178954819Y-113785714D02*
X179954819Y-114214285D01*
X121375595Y-75104819D02*
X121375595Y-75914342D01*
X121375595Y-75914342D02*
X121423214Y-76009580D01*
X121423214Y-76009580D02*
X121470833Y-76057200D01*
X121470833Y-76057200D02*
X121566071Y-76104819D01*
X121566071Y-76104819D02*
X121756547Y-76104819D01*
X121756547Y-76104819D02*
X121851785Y-76057200D01*
X121851785Y-76057200D02*
X121899404Y-76009580D01*
X121899404Y-76009580D02*
X121947023Y-75914342D01*
X121947023Y-75914342D02*
X121947023Y-75104819D01*
X122851785Y-75104819D02*
X122661309Y-75104819D01*
X122661309Y-75104819D02*
X122566071Y-75152438D01*
X122566071Y-75152438D02*
X122518452Y-75200057D01*
X122518452Y-75200057D02*
X122423214Y-75342914D01*
X122423214Y-75342914D02*
X122375595Y-75533390D01*
X122375595Y-75533390D02*
X122375595Y-75914342D01*
X122375595Y-75914342D02*
X122423214Y-76009580D01*
X122423214Y-76009580D02*
X122470833Y-76057200D01*
X122470833Y-76057200D02*
X122566071Y-76104819D01*
X122566071Y-76104819D02*
X122756547Y-76104819D01*
X122756547Y-76104819D02*
X122851785Y-76057200D01*
X122851785Y-76057200D02*
X122899404Y-76009580D01*
X122899404Y-76009580D02*
X122947023Y-75914342D01*
X122947023Y-75914342D02*
X122947023Y-75676247D01*
X122947023Y-75676247D02*
X122899404Y-75581009D01*
X122899404Y-75581009D02*
X122851785Y-75533390D01*
X122851785Y-75533390D02*
X122756547Y-75485771D01*
X122756547Y-75485771D02*
X122566071Y-75485771D01*
X122566071Y-75485771D02*
X122470833Y-75533390D01*
X122470833Y-75533390D02*
X122423214Y-75581009D01*
X122423214Y-75581009D02*
X122375595Y-75676247D01*
X147833333Y-98604819D02*
X147500000Y-98128628D01*
X147261905Y-98604819D02*
X147261905Y-97604819D01*
X147261905Y-97604819D02*
X147642857Y-97604819D01*
X147642857Y-97604819D02*
X147738095Y-97652438D01*
X147738095Y-97652438D02*
X147785714Y-97700057D01*
X147785714Y-97700057D02*
X147833333Y-97795295D01*
X147833333Y-97795295D02*
X147833333Y-97938152D01*
X147833333Y-97938152D02*
X147785714Y-98033390D01*
X147785714Y-98033390D02*
X147738095Y-98081009D01*
X147738095Y-98081009D02*
X147642857Y-98128628D01*
X147642857Y-98128628D02*
X147261905Y-98128628D01*
X148309524Y-98604819D02*
X148500000Y-98604819D01*
X148500000Y-98604819D02*
X148595238Y-98557200D01*
X148595238Y-98557200D02*
X148642857Y-98509580D01*
X148642857Y-98509580D02*
X148738095Y-98366723D01*
X148738095Y-98366723D02*
X148785714Y-98176247D01*
X148785714Y-98176247D02*
X148785714Y-97795295D01*
X148785714Y-97795295D02*
X148738095Y-97700057D01*
X148738095Y-97700057D02*
X148690476Y-97652438D01*
X148690476Y-97652438D02*
X148595238Y-97604819D01*
X148595238Y-97604819D02*
X148404762Y-97604819D01*
X148404762Y-97604819D02*
X148309524Y-97652438D01*
X148309524Y-97652438D02*
X148261905Y-97700057D01*
X148261905Y-97700057D02*
X148214286Y-97795295D01*
X148214286Y-97795295D02*
X148214286Y-98033390D01*
X148214286Y-98033390D02*
X148261905Y-98128628D01*
X148261905Y-98128628D02*
X148309524Y-98176247D01*
X148309524Y-98176247D02*
X148404762Y-98223866D01*
X148404762Y-98223866D02*
X148595238Y-98223866D01*
X148595238Y-98223866D02*
X148690476Y-98176247D01*
X148690476Y-98176247D02*
X148738095Y-98128628D01*
X148738095Y-98128628D02*
X148785714Y-98033390D01*
X152454819Y-88514285D02*
X151454819Y-88514285D01*
X151454819Y-88514285D02*
X151454819Y-88276190D01*
X151454819Y-88276190D02*
X151502438Y-88133333D01*
X151502438Y-88133333D02*
X151597676Y-88038095D01*
X151597676Y-88038095D02*
X151692914Y-87990476D01*
X151692914Y-87990476D02*
X151883390Y-87942857D01*
X151883390Y-87942857D02*
X152026247Y-87942857D01*
X152026247Y-87942857D02*
X152216723Y-87990476D01*
X152216723Y-87990476D02*
X152311961Y-88038095D01*
X152311961Y-88038095D02*
X152407200Y-88133333D01*
X152407200Y-88133333D02*
X152454819Y-88276190D01*
X152454819Y-88276190D02*
X152454819Y-88514285D01*
X152454819Y-86990476D02*
X152454819Y-87561904D01*
X152454819Y-87276190D02*
X151454819Y-87276190D01*
X151454819Y-87276190D02*
X151597676Y-87371428D01*
X151597676Y-87371428D02*
X151692914Y-87466666D01*
X151692914Y-87466666D02*
X151740533Y-87561904D01*
X151454819Y-86657142D02*
X151454819Y-86038095D01*
X151454819Y-86038095D02*
X151835771Y-86371428D01*
X151835771Y-86371428D02*
X151835771Y-86228571D01*
X151835771Y-86228571D02*
X151883390Y-86133333D01*
X151883390Y-86133333D02*
X151931009Y-86085714D01*
X151931009Y-86085714D02*
X152026247Y-86038095D01*
X152026247Y-86038095D02*
X152264342Y-86038095D01*
X152264342Y-86038095D02*
X152359580Y-86085714D01*
X152359580Y-86085714D02*
X152407200Y-86133333D01*
X152407200Y-86133333D02*
X152454819Y-86228571D01*
X152454819Y-86228571D02*
X152454819Y-86514285D01*
X152454819Y-86514285D02*
X152407200Y-86609523D01*
X152407200Y-86609523D02*
X152359580Y-86657142D01*
X184416667Y-112514700D02*
X184559524Y-112562319D01*
X184559524Y-112562319D02*
X184797619Y-112562319D01*
X184797619Y-112562319D02*
X184892857Y-112514700D01*
X184892857Y-112514700D02*
X184940476Y-112467080D01*
X184940476Y-112467080D02*
X184988095Y-112371842D01*
X184988095Y-112371842D02*
X184988095Y-112276604D01*
X184988095Y-112276604D02*
X184940476Y-112181366D01*
X184940476Y-112181366D02*
X184892857Y-112133747D01*
X184892857Y-112133747D02*
X184797619Y-112086128D01*
X184797619Y-112086128D02*
X184607143Y-112038509D01*
X184607143Y-112038509D02*
X184511905Y-111990890D01*
X184511905Y-111990890D02*
X184464286Y-111943271D01*
X184464286Y-111943271D02*
X184416667Y-111848033D01*
X184416667Y-111848033D02*
X184416667Y-111752795D01*
X184416667Y-111752795D02*
X184464286Y-111657557D01*
X184464286Y-111657557D02*
X184511905Y-111609938D01*
X184511905Y-111609938D02*
X184607143Y-111562319D01*
X184607143Y-111562319D02*
X184845238Y-111562319D01*
X184845238Y-111562319D02*
X184988095Y-111609938D01*
X185321429Y-111562319D02*
X185559524Y-112562319D01*
X185559524Y-112562319D02*
X185750000Y-111848033D01*
X185750000Y-111848033D02*
X185940476Y-112562319D01*
X185940476Y-112562319D02*
X186178572Y-111562319D01*
X187035714Y-111562319D02*
X186559524Y-111562319D01*
X186559524Y-111562319D02*
X186511905Y-112038509D01*
X186511905Y-112038509D02*
X186559524Y-111990890D01*
X186559524Y-111990890D02*
X186654762Y-111943271D01*
X186654762Y-111943271D02*
X186892857Y-111943271D01*
X186892857Y-111943271D02*
X186988095Y-111990890D01*
X186988095Y-111990890D02*
X187035714Y-112038509D01*
X187035714Y-112038509D02*
X187083333Y-112133747D01*
X187083333Y-112133747D02*
X187083333Y-112371842D01*
X187083333Y-112371842D02*
X187035714Y-112467080D01*
X187035714Y-112467080D02*
X186988095Y-112514700D01*
X186988095Y-112514700D02*
X186892857Y-112562319D01*
X186892857Y-112562319D02*
X186654762Y-112562319D01*
X186654762Y-112562319D02*
X186559524Y-112514700D01*
X186559524Y-112514700D02*
X186511905Y-112467080D01*
X202612666Y-106698819D02*
X202612666Y-107413104D01*
X202612666Y-107413104D02*
X202565047Y-107555961D01*
X202565047Y-107555961D02*
X202469809Y-107651200D01*
X202469809Y-107651200D02*
X202326952Y-107698819D01*
X202326952Y-107698819D02*
X202231714Y-107698819D01*
X203136476Y-107698819D02*
X203326952Y-107698819D01*
X203326952Y-107698819D02*
X203422190Y-107651200D01*
X203422190Y-107651200D02*
X203469809Y-107603580D01*
X203469809Y-107603580D02*
X203565047Y-107460723D01*
X203565047Y-107460723D02*
X203612666Y-107270247D01*
X203612666Y-107270247D02*
X203612666Y-106889295D01*
X203612666Y-106889295D02*
X203565047Y-106794057D01*
X203565047Y-106794057D02*
X203517428Y-106746438D01*
X203517428Y-106746438D02*
X203422190Y-106698819D01*
X203422190Y-106698819D02*
X203231714Y-106698819D01*
X203231714Y-106698819D02*
X203136476Y-106746438D01*
X203136476Y-106746438D02*
X203088857Y-106794057D01*
X203088857Y-106794057D02*
X203041238Y-106889295D01*
X203041238Y-106889295D02*
X203041238Y-107127390D01*
X203041238Y-107127390D02*
X203088857Y-107222628D01*
X203088857Y-107222628D02*
X203136476Y-107270247D01*
X203136476Y-107270247D02*
X203231714Y-107317866D01*
X203231714Y-107317866D02*
X203422190Y-107317866D01*
X203422190Y-107317866D02*
X203517428Y-107270247D01*
X203517428Y-107270247D02*
X203565047Y-107222628D01*
X203565047Y-107222628D02*
X203612666Y-107127390D01*
X127375595Y-75104819D02*
X127375595Y-75914342D01*
X127375595Y-75914342D02*
X127423214Y-76009580D01*
X127423214Y-76009580D02*
X127470833Y-76057200D01*
X127470833Y-76057200D02*
X127566071Y-76104819D01*
X127566071Y-76104819D02*
X127756547Y-76104819D01*
X127756547Y-76104819D02*
X127851785Y-76057200D01*
X127851785Y-76057200D02*
X127899404Y-76009580D01*
X127899404Y-76009580D02*
X127947023Y-75914342D01*
X127947023Y-75914342D02*
X127947023Y-75104819D01*
X128851785Y-75438152D02*
X128851785Y-76104819D01*
X128613690Y-75057200D02*
X128375595Y-75771485D01*
X128375595Y-75771485D02*
X128994642Y-75771485D01*
X132833333Y-73304819D02*
X132500000Y-72828628D01*
X132261905Y-73304819D02*
X132261905Y-72304819D01*
X132261905Y-72304819D02*
X132642857Y-72304819D01*
X132642857Y-72304819D02*
X132738095Y-72352438D01*
X132738095Y-72352438D02*
X132785714Y-72400057D01*
X132785714Y-72400057D02*
X132833333Y-72495295D01*
X132833333Y-72495295D02*
X132833333Y-72638152D01*
X132833333Y-72638152D02*
X132785714Y-72733390D01*
X132785714Y-72733390D02*
X132738095Y-72781009D01*
X132738095Y-72781009D02*
X132642857Y-72828628D01*
X132642857Y-72828628D02*
X132261905Y-72828628D01*
X133690476Y-72304819D02*
X133500000Y-72304819D01*
X133500000Y-72304819D02*
X133404762Y-72352438D01*
X133404762Y-72352438D02*
X133357143Y-72400057D01*
X133357143Y-72400057D02*
X133261905Y-72542914D01*
X133261905Y-72542914D02*
X133214286Y-72733390D01*
X133214286Y-72733390D02*
X133214286Y-73114342D01*
X133214286Y-73114342D02*
X133261905Y-73209580D01*
X133261905Y-73209580D02*
X133309524Y-73257200D01*
X133309524Y-73257200D02*
X133404762Y-73304819D01*
X133404762Y-73304819D02*
X133595238Y-73304819D01*
X133595238Y-73304819D02*
X133690476Y-73257200D01*
X133690476Y-73257200D02*
X133738095Y-73209580D01*
X133738095Y-73209580D02*
X133785714Y-73114342D01*
X133785714Y-73114342D02*
X133785714Y-72876247D01*
X133785714Y-72876247D02*
X133738095Y-72781009D01*
X133738095Y-72781009D02*
X133690476Y-72733390D01*
X133690476Y-72733390D02*
X133595238Y-72685771D01*
X133595238Y-72685771D02*
X133404762Y-72685771D01*
X133404762Y-72685771D02*
X133309524Y-72733390D01*
X133309524Y-72733390D02*
X133261905Y-72781009D01*
X133261905Y-72781009D02*
X133214286Y-72876247D01*
X128920833Y-85104819D02*
X128587500Y-84628628D01*
X128349405Y-85104819D02*
X128349405Y-84104819D01*
X128349405Y-84104819D02*
X128730357Y-84104819D01*
X128730357Y-84104819D02*
X128825595Y-84152438D01*
X128825595Y-84152438D02*
X128873214Y-84200057D01*
X128873214Y-84200057D02*
X128920833Y-84295295D01*
X128920833Y-84295295D02*
X128920833Y-84438152D01*
X128920833Y-84438152D02*
X128873214Y-84533390D01*
X128873214Y-84533390D02*
X128825595Y-84581009D01*
X128825595Y-84581009D02*
X128730357Y-84628628D01*
X128730357Y-84628628D02*
X128349405Y-84628628D01*
X129777976Y-84438152D02*
X129777976Y-85104819D01*
X129539881Y-84057200D02*
X129301786Y-84771485D01*
X129301786Y-84771485D02*
X129920833Y-84771485D01*
X143538095Y-79654819D02*
X143538095Y-80464342D01*
X143538095Y-80464342D02*
X143585714Y-80559580D01*
X143585714Y-80559580D02*
X143633333Y-80607200D01*
X143633333Y-80607200D02*
X143728571Y-80654819D01*
X143728571Y-80654819D02*
X143919047Y-80654819D01*
X143919047Y-80654819D02*
X144014285Y-80607200D01*
X144014285Y-80607200D02*
X144061904Y-80559580D01*
X144061904Y-80559580D02*
X144109523Y-80464342D01*
X144109523Y-80464342D02*
X144109523Y-79654819D01*
X144538095Y-79750057D02*
X144585714Y-79702438D01*
X144585714Y-79702438D02*
X144680952Y-79654819D01*
X144680952Y-79654819D02*
X144919047Y-79654819D01*
X144919047Y-79654819D02*
X145014285Y-79702438D01*
X145014285Y-79702438D02*
X145061904Y-79750057D01*
X145061904Y-79750057D02*
X145109523Y-79845295D01*
X145109523Y-79845295D02*
X145109523Y-79940533D01*
X145109523Y-79940533D02*
X145061904Y-80083390D01*
X145061904Y-80083390D02*
X144490476Y-80654819D01*
X144490476Y-80654819D02*
X145109523Y-80654819D01*
X120833333Y-85604819D02*
X120500000Y-85128628D01*
X120261905Y-85604819D02*
X120261905Y-84604819D01*
X120261905Y-84604819D02*
X120642857Y-84604819D01*
X120642857Y-84604819D02*
X120738095Y-84652438D01*
X120738095Y-84652438D02*
X120785714Y-84700057D01*
X120785714Y-84700057D02*
X120833333Y-84795295D01*
X120833333Y-84795295D02*
X120833333Y-84938152D01*
X120833333Y-84938152D02*
X120785714Y-85033390D01*
X120785714Y-85033390D02*
X120738095Y-85081009D01*
X120738095Y-85081009D02*
X120642857Y-85128628D01*
X120642857Y-85128628D02*
X120261905Y-85128628D01*
X121738095Y-84604819D02*
X121261905Y-84604819D01*
X121261905Y-84604819D02*
X121214286Y-85081009D01*
X121214286Y-85081009D02*
X121261905Y-85033390D01*
X121261905Y-85033390D02*
X121357143Y-84985771D01*
X121357143Y-84985771D02*
X121595238Y-84985771D01*
X121595238Y-84985771D02*
X121690476Y-85033390D01*
X121690476Y-85033390D02*
X121738095Y-85081009D01*
X121738095Y-85081009D02*
X121785714Y-85176247D01*
X121785714Y-85176247D02*
X121785714Y-85414342D01*
X121785714Y-85414342D02*
X121738095Y-85509580D01*
X121738095Y-85509580D02*
X121690476Y-85557200D01*
X121690476Y-85557200D02*
X121595238Y-85604819D01*
X121595238Y-85604819D02*
X121357143Y-85604819D01*
X121357143Y-85604819D02*
X121261905Y-85557200D01*
X121261905Y-85557200D02*
X121214286Y-85509580D01*
X194416667Y-112514700D02*
X194559524Y-112562319D01*
X194559524Y-112562319D02*
X194797619Y-112562319D01*
X194797619Y-112562319D02*
X194892857Y-112514700D01*
X194892857Y-112514700D02*
X194940476Y-112467080D01*
X194940476Y-112467080D02*
X194988095Y-112371842D01*
X194988095Y-112371842D02*
X194988095Y-112276604D01*
X194988095Y-112276604D02*
X194940476Y-112181366D01*
X194940476Y-112181366D02*
X194892857Y-112133747D01*
X194892857Y-112133747D02*
X194797619Y-112086128D01*
X194797619Y-112086128D02*
X194607143Y-112038509D01*
X194607143Y-112038509D02*
X194511905Y-111990890D01*
X194511905Y-111990890D02*
X194464286Y-111943271D01*
X194464286Y-111943271D02*
X194416667Y-111848033D01*
X194416667Y-111848033D02*
X194416667Y-111752795D01*
X194416667Y-111752795D02*
X194464286Y-111657557D01*
X194464286Y-111657557D02*
X194511905Y-111609938D01*
X194511905Y-111609938D02*
X194607143Y-111562319D01*
X194607143Y-111562319D02*
X194845238Y-111562319D01*
X194845238Y-111562319D02*
X194988095Y-111609938D01*
X195321429Y-111562319D02*
X195559524Y-112562319D01*
X195559524Y-112562319D02*
X195750000Y-111848033D01*
X195750000Y-111848033D02*
X195940476Y-112562319D01*
X195940476Y-112562319D02*
X196178572Y-111562319D01*
X196988095Y-111895652D02*
X196988095Y-112562319D01*
X196750000Y-111514700D02*
X196511905Y-112228985D01*
X196511905Y-112228985D02*
X197130952Y-112228985D01*
X120666666Y-93454819D02*
X120666666Y-94169104D01*
X120666666Y-94169104D02*
X120619047Y-94311961D01*
X120619047Y-94311961D02*
X120523809Y-94407200D01*
X120523809Y-94407200D02*
X120380952Y-94454819D01*
X120380952Y-94454819D02*
X120285714Y-94454819D01*
X121619047Y-93454819D02*
X121142857Y-93454819D01*
X121142857Y-93454819D02*
X121095238Y-93931009D01*
X121095238Y-93931009D02*
X121142857Y-93883390D01*
X121142857Y-93883390D02*
X121238095Y-93835771D01*
X121238095Y-93835771D02*
X121476190Y-93835771D01*
X121476190Y-93835771D02*
X121571428Y-93883390D01*
X121571428Y-93883390D02*
X121619047Y-93931009D01*
X121619047Y-93931009D02*
X121666666Y-94026247D01*
X121666666Y-94026247D02*
X121666666Y-94264342D01*
X121666666Y-94264342D02*
X121619047Y-94359580D01*
X121619047Y-94359580D02*
X121571428Y-94407200D01*
X121571428Y-94407200D02*
X121476190Y-94454819D01*
X121476190Y-94454819D02*
X121238095Y-94454819D01*
X121238095Y-94454819D02*
X121142857Y-94407200D01*
X121142857Y-94407200D02*
X121095238Y-94359580D01*
X105407200Y-103333332D02*
X105454819Y-103190475D01*
X105454819Y-103190475D02*
X105454819Y-102952380D01*
X105454819Y-102952380D02*
X105407200Y-102857142D01*
X105407200Y-102857142D02*
X105359580Y-102809523D01*
X105359580Y-102809523D02*
X105264342Y-102761904D01*
X105264342Y-102761904D02*
X105169104Y-102761904D01*
X105169104Y-102761904D02*
X105073866Y-102809523D01*
X105073866Y-102809523D02*
X105026247Y-102857142D01*
X105026247Y-102857142D02*
X104978628Y-102952380D01*
X104978628Y-102952380D02*
X104931009Y-103142856D01*
X104931009Y-103142856D02*
X104883390Y-103238094D01*
X104883390Y-103238094D02*
X104835771Y-103285713D01*
X104835771Y-103285713D02*
X104740533Y-103333332D01*
X104740533Y-103333332D02*
X104645295Y-103333332D01*
X104645295Y-103333332D02*
X104550057Y-103285713D01*
X104550057Y-103285713D02*
X104502438Y-103238094D01*
X104502438Y-103238094D02*
X104454819Y-103142856D01*
X104454819Y-103142856D02*
X104454819Y-102904761D01*
X104454819Y-102904761D02*
X104502438Y-102761904D01*
X104454819Y-102428570D02*
X105454819Y-102190475D01*
X105454819Y-102190475D02*
X104740533Y-101999999D01*
X104740533Y-101999999D02*
X105454819Y-101809523D01*
X105454819Y-101809523D02*
X104454819Y-101571428D01*
X105454819Y-100666666D02*
X105454819Y-101238094D01*
X105454819Y-100952380D02*
X104454819Y-100952380D01*
X104454819Y-100952380D02*
X104597676Y-101047618D01*
X104597676Y-101047618D02*
X104692914Y-101142856D01*
X104692914Y-101142856D02*
X104740533Y-101238094D01*
X105407200Y-68333332D02*
X105454819Y-68190475D01*
X105454819Y-68190475D02*
X105454819Y-67952380D01*
X105454819Y-67952380D02*
X105407200Y-67857142D01*
X105407200Y-67857142D02*
X105359580Y-67809523D01*
X105359580Y-67809523D02*
X105264342Y-67761904D01*
X105264342Y-67761904D02*
X105169104Y-67761904D01*
X105169104Y-67761904D02*
X105073866Y-67809523D01*
X105073866Y-67809523D02*
X105026247Y-67857142D01*
X105026247Y-67857142D02*
X104978628Y-67952380D01*
X104978628Y-67952380D02*
X104931009Y-68142856D01*
X104931009Y-68142856D02*
X104883390Y-68238094D01*
X104883390Y-68238094D02*
X104835771Y-68285713D01*
X104835771Y-68285713D02*
X104740533Y-68333332D01*
X104740533Y-68333332D02*
X104645295Y-68333332D01*
X104645295Y-68333332D02*
X104550057Y-68285713D01*
X104550057Y-68285713D02*
X104502438Y-68238094D01*
X104502438Y-68238094D02*
X104454819Y-68142856D01*
X104454819Y-68142856D02*
X104454819Y-67904761D01*
X104454819Y-67904761D02*
X104502438Y-67761904D01*
X104454819Y-67428570D02*
X105454819Y-67190475D01*
X105454819Y-67190475D02*
X104740533Y-66999999D01*
X104740533Y-66999999D02*
X105454819Y-66809523D01*
X105454819Y-66809523D02*
X104454819Y-66571428D01*
X104454819Y-66285713D02*
X104454819Y-65666666D01*
X104454819Y-65666666D02*
X104835771Y-65999999D01*
X104835771Y-65999999D02*
X104835771Y-65857142D01*
X104835771Y-65857142D02*
X104883390Y-65761904D01*
X104883390Y-65761904D02*
X104931009Y-65714285D01*
X104931009Y-65714285D02*
X105026247Y-65666666D01*
X105026247Y-65666666D02*
X105264342Y-65666666D01*
X105264342Y-65666666D02*
X105359580Y-65714285D01*
X105359580Y-65714285D02*
X105407200Y-65761904D01*
X105407200Y-65761904D02*
X105454819Y-65857142D01*
X105454819Y-65857142D02*
X105454819Y-66142856D01*
X105454819Y-66142856D02*
X105407200Y-66238094D01*
X105407200Y-66238094D02*
X105359580Y-66285713D01*
X136972897Y-83258819D02*
X136639564Y-82782628D01*
X136401469Y-83258819D02*
X136401469Y-82258819D01*
X136401469Y-82258819D02*
X136782421Y-82258819D01*
X136782421Y-82258819D02*
X136877659Y-82306438D01*
X136877659Y-82306438D02*
X136925278Y-82354057D01*
X136925278Y-82354057D02*
X136972897Y-82449295D01*
X136972897Y-82449295D02*
X136972897Y-82592152D01*
X136972897Y-82592152D02*
X136925278Y-82687390D01*
X136925278Y-82687390D02*
X136877659Y-82735009D01*
X136877659Y-82735009D02*
X136782421Y-82782628D01*
X136782421Y-82782628D02*
X136401469Y-82782628D01*
X137925278Y-83258819D02*
X137353850Y-83258819D01*
X137639564Y-83258819D02*
X137639564Y-82258819D01*
X137639564Y-82258819D02*
X137544326Y-82401676D01*
X137544326Y-82401676D02*
X137449088Y-82496914D01*
X137449088Y-82496914D02*
X137353850Y-82544533D01*
X162594819Y-79755904D02*
X163404342Y-79755904D01*
X163404342Y-79755904D02*
X163499580Y-79708285D01*
X163499580Y-79708285D02*
X163547200Y-79660666D01*
X163547200Y-79660666D02*
X163594819Y-79565428D01*
X163594819Y-79565428D02*
X163594819Y-79374952D01*
X163594819Y-79374952D02*
X163547200Y-79279714D01*
X163547200Y-79279714D02*
X163499580Y-79232095D01*
X163499580Y-79232095D02*
X163404342Y-79184476D01*
X163404342Y-79184476D02*
X162594819Y-79184476D01*
X162594819Y-78232095D02*
X162594819Y-78708285D01*
X162594819Y-78708285D02*
X163071009Y-78755904D01*
X163071009Y-78755904D02*
X163023390Y-78708285D01*
X163023390Y-78708285D02*
X162975771Y-78613047D01*
X162975771Y-78613047D02*
X162975771Y-78374952D01*
X162975771Y-78374952D02*
X163023390Y-78279714D01*
X163023390Y-78279714D02*
X163071009Y-78232095D01*
X163071009Y-78232095D02*
X163166247Y-78184476D01*
X163166247Y-78184476D02*
X163404342Y-78184476D01*
X163404342Y-78184476D02*
X163499580Y-78232095D01*
X163499580Y-78232095D02*
X163547200Y-78279714D01*
X163547200Y-78279714D02*
X163594819Y-78374952D01*
X163594819Y-78374952D02*
X163594819Y-78613047D01*
X163594819Y-78613047D02*
X163547200Y-78708285D01*
X163547200Y-78708285D02*
X163499580Y-78755904D01*
X146454819Y-85514285D02*
X145454819Y-85514285D01*
X145454819Y-85514285D02*
X145454819Y-85276190D01*
X145454819Y-85276190D02*
X145502438Y-85133333D01*
X145502438Y-85133333D02*
X145597676Y-85038095D01*
X145597676Y-85038095D02*
X145692914Y-84990476D01*
X145692914Y-84990476D02*
X145883390Y-84942857D01*
X145883390Y-84942857D02*
X146026247Y-84942857D01*
X146026247Y-84942857D02*
X146216723Y-84990476D01*
X146216723Y-84990476D02*
X146311961Y-85038095D01*
X146311961Y-85038095D02*
X146407200Y-85133333D01*
X146407200Y-85133333D02*
X146454819Y-85276190D01*
X146454819Y-85276190D02*
X146454819Y-85514285D01*
X146454819Y-83990476D02*
X146454819Y-84561904D01*
X146454819Y-84276190D02*
X145454819Y-84276190D01*
X145454819Y-84276190D02*
X145597676Y-84371428D01*
X145597676Y-84371428D02*
X145692914Y-84466666D01*
X145692914Y-84466666D02*
X145740533Y-84561904D01*
X145788152Y-83133333D02*
X146454819Y-83133333D01*
X145407200Y-83371428D02*
X146121485Y-83609523D01*
X146121485Y-83609523D02*
X146121485Y-82990476D01*
X150473580Y-72556666D02*
X150521200Y-72604285D01*
X150521200Y-72604285D02*
X150568819Y-72747142D01*
X150568819Y-72747142D02*
X150568819Y-72842380D01*
X150568819Y-72842380D02*
X150521200Y-72985237D01*
X150521200Y-72985237D02*
X150425961Y-73080475D01*
X150425961Y-73080475D02*
X150330723Y-73128094D01*
X150330723Y-73128094D02*
X150140247Y-73175713D01*
X150140247Y-73175713D02*
X149997390Y-73175713D01*
X149997390Y-73175713D02*
X149806914Y-73128094D01*
X149806914Y-73128094D02*
X149711676Y-73080475D01*
X149711676Y-73080475D02*
X149616438Y-72985237D01*
X149616438Y-72985237D02*
X149568819Y-72842380D01*
X149568819Y-72842380D02*
X149568819Y-72747142D01*
X149568819Y-72747142D02*
X149616438Y-72604285D01*
X149616438Y-72604285D02*
X149664057Y-72556666D01*
X149664057Y-72175713D02*
X149616438Y-72128094D01*
X149616438Y-72128094D02*
X149568819Y-72032856D01*
X149568819Y-72032856D02*
X149568819Y-71794761D01*
X149568819Y-71794761D02*
X149616438Y-71699523D01*
X149616438Y-71699523D02*
X149664057Y-71651904D01*
X149664057Y-71651904D02*
X149759295Y-71604285D01*
X149759295Y-71604285D02*
X149854533Y-71604285D01*
X149854533Y-71604285D02*
X149997390Y-71651904D01*
X149997390Y-71651904D02*
X150568819Y-72223332D01*
X150568819Y-72223332D02*
X150568819Y-71604285D01*
X207564819Y-101833333D02*
X208279104Y-101833333D01*
X208279104Y-101833333D02*
X208421961Y-101880952D01*
X208421961Y-101880952D02*
X208517200Y-101976190D01*
X208517200Y-101976190D02*
X208564819Y-102119047D01*
X208564819Y-102119047D02*
X208564819Y-102214285D01*
X207898152Y-100928571D02*
X208564819Y-100928571D01*
X207517200Y-101166666D02*
X208231485Y-101404761D01*
X208231485Y-101404761D02*
X208231485Y-100785714D01*
X136199405Y-76804819D02*
X136199405Y-75804819D01*
X136199405Y-75804819D02*
X136437500Y-75804819D01*
X136437500Y-75804819D02*
X136580357Y-75852438D01*
X136580357Y-75852438D02*
X136675595Y-75947676D01*
X136675595Y-75947676D02*
X136723214Y-76042914D01*
X136723214Y-76042914D02*
X136770833Y-76233390D01*
X136770833Y-76233390D02*
X136770833Y-76376247D01*
X136770833Y-76376247D02*
X136723214Y-76566723D01*
X136723214Y-76566723D02*
X136675595Y-76661961D01*
X136675595Y-76661961D02*
X136580357Y-76757200D01*
X136580357Y-76757200D02*
X136437500Y-76804819D01*
X136437500Y-76804819D02*
X136199405Y-76804819D01*
X137342262Y-76233390D02*
X137247024Y-76185771D01*
X137247024Y-76185771D02*
X137199405Y-76138152D01*
X137199405Y-76138152D02*
X137151786Y-76042914D01*
X137151786Y-76042914D02*
X137151786Y-75995295D01*
X137151786Y-75995295D02*
X137199405Y-75900057D01*
X137199405Y-75900057D02*
X137247024Y-75852438D01*
X137247024Y-75852438D02*
X137342262Y-75804819D01*
X137342262Y-75804819D02*
X137532738Y-75804819D01*
X137532738Y-75804819D02*
X137627976Y-75852438D01*
X137627976Y-75852438D02*
X137675595Y-75900057D01*
X137675595Y-75900057D02*
X137723214Y-75995295D01*
X137723214Y-75995295D02*
X137723214Y-76042914D01*
X137723214Y-76042914D02*
X137675595Y-76138152D01*
X137675595Y-76138152D02*
X137627976Y-76185771D01*
X137627976Y-76185771D02*
X137532738Y-76233390D01*
X137532738Y-76233390D02*
X137342262Y-76233390D01*
X137342262Y-76233390D02*
X137247024Y-76281009D01*
X137247024Y-76281009D02*
X137199405Y-76328628D01*
X137199405Y-76328628D02*
X137151786Y-76423866D01*
X137151786Y-76423866D02*
X137151786Y-76614342D01*
X137151786Y-76614342D02*
X137199405Y-76709580D01*
X137199405Y-76709580D02*
X137247024Y-76757200D01*
X137247024Y-76757200D02*
X137342262Y-76804819D01*
X137342262Y-76804819D02*
X137532738Y-76804819D01*
X137532738Y-76804819D02*
X137627976Y-76757200D01*
X137627976Y-76757200D02*
X137675595Y-76709580D01*
X137675595Y-76709580D02*
X137723214Y-76614342D01*
X137723214Y-76614342D02*
X137723214Y-76423866D01*
X137723214Y-76423866D02*
X137675595Y-76328628D01*
X137675595Y-76328628D02*
X137627976Y-76281009D01*
X137627976Y-76281009D02*
X137532738Y-76233390D01*
X135153333Y-71120180D02*
X135153333Y-70405895D01*
X135153333Y-70405895D02*
X135200952Y-70263038D01*
X135200952Y-70263038D02*
X135296190Y-70167800D01*
X135296190Y-70167800D02*
X135439047Y-70120180D01*
X135439047Y-70120180D02*
X135534285Y-70120180D01*
X134153333Y-70120180D02*
X134724761Y-70120180D01*
X134439047Y-70120180D02*
X134439047Y-71120180D01*
X134439047Y-71120180D02*
X134534285Y-70977323D01*
X134534285Y-70977323D02*
X134629523Y-70882085D01*
X134629523Y-70882085D02*
X134724761Y-70834466D01*
X156569580Y-72556666D02*
X156617200Y-72604285D01*
X156617200Y-72604285D02*
X156664819Y-72747142D01*
X156664819Y-72747142D02*
X156664819Y-72842380D01*
X156664819Y-72842380D02*
X156617200Y-72985237D01*
X156617200Y-72985237D02*
X156521961Y-73080475D01*
X156521961Y-73080475D02*
X156426723Y-73128094D01*
X156426723Y-73128094D02*
X156236247Y-73175713D01*
X156236247Y-73175713D02*
X156093390Y-73175713D01*
X156093390Y-73175713D02*
X155902914Y-73128094D01*
X155902914Y-73128094D02*
X155807676Y-73080475D01*
X155807676Y-73080475D02*
X155712438Y-72985237D01*
X155712438Y-72985237D02*
X155664819Y-72842380D01*
X155664819Y-72842380D02*
X155664819Y-72747142D01*
X155664819Y-72747142D02*
X155712438Y-72604285D01*
X155712438Y-72604285D02*
X155760057Y-72556666D01*
X155998152Y-71699523D02*
X156664819Y-71699523D01*
X155617200Y-71937618D02*
X156331485Y-72175713D01*
X156331485Y-72175713D02*
X156331485Y-71556666D01*
X169940476Y-66587200D02*
X170083333Y-66634819D01*
X170083333Y-66634819D02*
X170321428Y-66634819D01*
X170321428Y-66634819D02*
X170416666Y-66587200D01*
X170416666Y-66587200D02*
X170464285Y-66539580D01*
X170464285Y-66539580D02*
X170511904Y-66444342D01*
X170511904Y-66444342D02*
X170511904Y-66349104D01*
X170511904Y-66349104D02*
X170464285Y-66253866D01*
X170464285Y-66253866D02*
X170416666Y-66206247D01*
X170416666Y-66206247D02*
X170321428Y-66158628D01*
X170321428Y-66158628D02*
X170130952Y-66111009D01*
X170130952Y-66111009D02*
X170035714Y-66063390D01*
X170035714Y-66063390D02*
X169988095Y-66015771D01*
X169988095Y-66015771D02*
X169940476Y-65920533D01*
X169940476Y-65920533D02*
X169940476Y-65825295D01*
X169940476Y-65825295D02*
X169988095Y-65730057D01*
X169988095Y-65730057D02*
X170035714Y-65682438D01*
X170035714Y-65682438D02*
X170130952Y-65634819D01*
X170130952Y-65634819D02*
X170369047Y-65634819D01*
X170369047Y-65634819D02*
X170511904Y-65682438D01*
X170845238Y-65634819D02*
X171083333Y-66634819D01*
X171083333Y-66634819D02*
X171273809Y-65920533D01*
X171273809Y-65920533D02*
X171464285Y-66634819D01*
X171464285Y-66634819D02*
X171702381Y-65634819D01*
X172607142Y-66634819D02*
X172035714Y-66634819D01*
X172321428Y-66634819D02*
X172321428Y-65634819D01*
X172321428Y-65634819D02*
X172226190Y-65777676D01*
X172226190Y-65777676D02*
X172130952Y-65872914D01*
X172130952Y-65872914D02*
X172035714Y-65920533D01*
X173226190Y-65634819D02*
X173321428Y-65634819D01*
X173321428Y-65634819D02*
X173416666Y-65682438D01*
X173416666Y-65682438D02*
X173464285Y-65730057D01*
X173464285Y-65730057D02*
X173511904Y-65825295D01*
X173511904Y-65825295D02*
X173559523Y-66015771D01*
X173559523Y-66015771D02*
X173559523Y-66253866D01*
X173559523Y-66253866D02*
X173511904Y-66444342D01*
X173511904Y-66444342D02*
X173464285Y-66539580D01*
X173464285Y-66539580D02*
X173416666Y-66587200D01*
X173416666Y-66587200D02*
X173321428Y-66634819D01*
X173321428Y-66634819D02*
X173226190Y-66634819D01*
X173226190Y-66634819D02*
X173130952Y-66587200D01*
X173130952Y-66587200D02*
X173083333Y-66539580D01*
X173083333Y-66539580D02*
X173035714Y-66444342D01*
X173035714Y-66444342D02*
X172988095Y-66253866D01*
X172988095Y-66253866D02*
X172988095Y-66015771D01*
X172988095Y-66015771D02*
X173035714Y-65825295D01*
X173035714Y-65825295D02*
X173083333Y-65730057D01*
X173083333Y-65730057D02*
X173130952Y-65682438D01*
X173130952Y-65682438D02*
X173226190Y-65634819D01*
X112454819Y-102048094D02*
X111454819Y-102048094D01*
X111454819Y-102048094D02*
X111454819Y-101809999D01*
X111454819Y-101809999D02*
X111502438Y-101667142D01*
X111502438Y-101667142D02*
X111597676Y-101571904D01*
X111597676Y-101571904D02*
X111692914Y-101524285D01*
X111692914Y-101524285D02*
X111883390Y-101476666D01*
X111883390Y-101476666D02*
X112026247Y-101476666D01*
X112026247Y-101476666D02*
X112216723Y-101524285D01*
X112216723Y-101524285D02*
X112311961Y-101571904D01*
X112311961Y-101571904D02*
X112407200Y-101667142D01*
X112407200Y-101667142D02*
X112454819Y-101809999D01*
X112454819Y-101809999D02*
X112454819Y-102048094D01*
X112454819Y-100524285D02*
X112454819Y-101095713D01*
X112454819Y-100809999D02*
X111454819Y-100809999D01*
X111454819Y-100809999D02*
X111597676Y-100905237D01*
X111597676Y-100905237D02*
X111692914Y-101000475D01*
X111692914Y-101000475D02*
X111740533Y-101095713D01*
X112468819Y-107195904D02*
X111468819Y-107195904D01*
X112468819Y-106624476D02*
X111897390Y-107053047D01*
X111468819Y-106624476D02*
X112040247Y-107195904D01*
X123984819Y-70714285D02*
X122984819Y-70714285D01*
X122984819Y-70714285D02*
X122984819Y-70476190D01*
X122984819Y-70476190D02*
X123032438Y-70333333D01*
X123032438Y-70333333D02*
X123127676Y-70238095D01*
X123127676Y-70238095D02*
X123222914Y-70190476D01*
X123222914Y-70190476D02*
X123413390Y-70142857D01*
X123413390Y-70142857D02*
X123556247Y-70142857D01*
X123556247Y-70142857D02*
X123746723Y-70190476D01*
X123746723Y-70190476D02*
X123841961Y-70238095D01*
X123841961Y-70238095D02*
X123937200Y-70333333D01*
X123937200Y-70333333D02*
X123984819Y-70476190D01*
X123984819Y-70476190D02*
X123984819Y-70714285D01*
X123984819Y-69190476D02*
X123984819Y-69761904D01*
X123984819Y-69476190D02*
X122984819Y-69476190D01*
X122984819Y-69476190D02*
X123127676Y-69571428D01*
X123127676Y-69571428D02*
X123222914Y-69666666D01*
X123222914Y-69666666D02*
X123270533Y-69761904D01*
X123080057Y-68809523D02*
X123032438Y-68761904D01*
X123032438Y-68761904D02*
X122984819Y-68666666D01*
X122984819Y-68666666D02*
X122984819Y-68428571D01*
X122984819Y-68428571D02*
X123032438Y-68333333D01*
X123032438Y-68333333D02*
X123080057Y-68285714D01*
X123080057Y-68285714D02*
X123175295Y-68238095D01*
X123175295Y-68238095D02*
X123270533Y-68238095D01*
X123270533Y-68238095D02*
X123413390Y-68285714D01*
X123413390Y-68285714D02*
X123984819Y-68857142D01*
X123984819Y-68857142D02*
X123984819Y-68238095D01*
X124354819Y-74841904D02*
X123354819Y-74841904D01*
X124354819Y-74270476D02*
X123783390Y-74699047D01*
X123354819Y-74270476D02*
X123926247Y-74841904D01*
X163750666Y-65550819D02*
X163750666Y-66265104D01*
X163750666Y-66265104D02*
X163703047Y-66407961D01*
X163703047Y-66407961D02*
X163607809Y-66503200D01*
X163607809Y-66503200D02*
X163464952Y-66550819D01*
X163464952Y-66550819D02*
X163369714Y-66550819D01*
X164369714Y-65979390D02*
X164274476Y-65931771D01*
X164274476Y-65931771D02*
X164226857Y-65884152D01*
X164226857Y-65884152D02*
X164179238Y-65788914D01*
X164179238Y-65788914D02*
X164179238Y-65741295D01*
X164179238Y-65741295D02*
X164226857Y-65646057D01*
X164226857Y-65646057D02*
X164274476Y-65598438D01*
X164274476Y-65598438D02*
X164369714Y-65550819D01*
X164369714Y-65550819D02*
X164560190Y-65550819D01*
X164560190Y-65550819D02*
X164655428Y-65598438D01*
X164655428Y-65598438D02*
X164703047Y-65646057D01*
X164703047Y-65646057D02*
X164750666Y-65741295D01*
X164750666Y-65741295D02*
X164750666Y-65788914D01*
X164750666Y-65788914D02*
X164703047Y-65884152D01*
X164703047Y-65884152D02*
X164655428Y-65931771D01*
X164655428Y-65931771D02*
X164560190Y-65979390D01*
X164560190Y-65979390D02*
X164369714Y-65979390D01*
X164369714Y-65979390D02*
X164274476Y-66027009D01*
X164274476Y-66027009D02*
X164226857Y-66074628D01*
X164226857Y-66074628D02*
X164179238Y-66169866D01*
X164179238Y-66169866D02*
X164179238Y-66360342D01*
X164179238Y-66360342D02*
X164226857Y-66455580D01*
X164226857Y-66455580D02*
X164274476Y-66503200D01*
X164274476Y-66503200D02*
X164369714Y-66550819D01*
X164369714Y-66550819D02*
X164560190Y-66550819D01*
X164560190Y-66550819D02*
X164655428Y-66503200D01*
X164655428Y-66503200D02*
X164703047Y-66455580D01*
X164703047Y-66455580D02*
X164750666Y-66360342D01*
X164750666Y-66360342D02*
X164750666Y-66169866D01*
X164750666Y-66169866D02*
X164703047Y-66074628D01*
X164703047Y-66074628D02*
X164655428Y-66027009D01*
X164655428Y-66027009D02*
X164560190Y-65979390D01*
X112454819Y-85048094D02*
X111454819Y-85048094D01*
X111454819Y-85048094D02*
X111454819Y-84809999D01*
X111454819Y-84809999D02*
X111502438Y-84667142D01*
X111502438Y-84667142D02*
X111597676Y-84571904D01*
X111597676Y-84571904D02*
X111692914Y-84524285D01*
X111692914Y-84524285D02*
X111883390Y-84476666D01*
X111883390Y-84476666D02*
X112026247Y-84476666D01*
X112026247Y-84476666D02*
X112216723Y-84524285D01*
X112216723Y-84524285D02*
X112311961Y-84571904D01*
X112311961Y-84571904D02*
X112407200Y-84667142D01*
X112407200Y-84667142D02*
X112454819Y-84809999D01*
X112454819Y-84809999D02*
X112454819Y-85048094D01*
X111550057Y-84095713D02*
X111502438Y-84048094D01*
X111502438Y-84048094D02*
X111454819Y-83952856D01*
X111454819Y-83952856D02*
X111454819Y-83714761D01*
X111454819Y-83714761D02*
X111502438Y-83619523D01*
X111502438Y-83619523D02*
X111550057Y-83571904D01*
X111550057Y-83571904D02*
X111645295Y-83524285D01*
X111645295Y-83524285D02*
X111740533Y-83524285D01*
X111740533Y-83524285D02*
X111883390Y-83571904D01*
X111883390Y-83571904D02*
X112454819Y-84143332D01*
X112454819Y-84143332D02*
X112454819Y-83524285D01*
X112468819Y-90177904D02*
X111468819Y-90177904D01*
X112468819Y-89606476D02*
X111897390Y-90035047D01*
X111468819Y-89606476D02*
X112040247Y-90177904D01*
D15*
%TO.C,SW2*%
X94400000Y-81400000D02*
X94400000Y-96600000D01*
X94400000Y-96600000D02*
X109600000Y-96600000D01*
X109600000Y-81400000D02*
X94400000Y-81400000D01*
X109600000Y-96600000D02*
X109600000Y-81400000D01*
%TO.C,R2*%
X132685436Y-80265000D02*
X133139564Y-80265000D01*
X132685436Y-81735000D02*
X133139564Y-81735000D01*
%TO.C,SW7*%
X188115000Y-63600000D02*
X188115000Y-65700000D01*
X188115000Y-68300000D02*
X188115000Y-68810000D01*
X188115000Y-68810000D02*
X188635000Y-68810000D01*
X188635000Y-65470000D02*
X188635000Y-65700000D01*
X188635000Y-65470000D02*
X189175000Y-65470000D01*
X188635000Y-68300000D02*
X188635000Y-68810000D01*
X190275000Y-65470000D02*
X193675000Y-65470000D01*
X194775000Y-65470000D02*
X195315000Y-65470000D01*
X195315000Y-65470000D02*
X195315000Y-65700000D01*
X195315000Y-68300000D02*
X195315000Y-68810000D01*
X195315000Y-68810000D02*
X195835000Y-68810000D01*
X195835000Y-63600000D02*
X195835000Y-65700000D01*
X195835000Y-68300000D02*
X195835000Y-68810000D01*
%TO.C,SW8*%
X177890000Y-63600000D02*
X177890000Y-65700000D01*
X177890000Y-68300000D02*
X177890000Y-68810000D01*
X177890000Y-68810000D02*
X178410000Y-68810000D01*
X178410000Y-65470000D02*
X178410000Y-65700000D01*
X178410000Y-65470000D02*
X178950000Y-65470000D01*
X178410000Y-68300000D02*
X178410000Y-68810000D01*
X180050000Y-65470000D02*
X183450000Y-65470000D01*
X184550000Y-65470000D02*
X185090000Y-65470000D01*
X185090000Y-65470000D02*
X185090000Y-65700000D01*
X185090000Y-68300000D02*
X185090000Y-68810000D01*
X185090000Y-68810000D02*
X185610000Y-68810000D01*
X185610000Y-63600000D02*
X185610000Y-65700000D01*
X185610000Y-68300000D02*
X185610000Y-68810000D01*
%TO.C,R8*%
X148227064Y-106765000D02*
X147772936Y-106765000D01*
X148227064Y-108235000D02*
X147772936Y-108235000D01*
%TO.C,C3*%
X152265000Y-69788748D02*
X152265000Y-70311252D01*
X153735000Y-69788748D02*
X153735000Y-70311252D01*
%TO.C,D4*%
X193040000Y-105500000D02*
X193690000Y-105500000D01*
X194290000Y-104380000D02*
X194290000Y-106620000D01*
X194410000Y-104380000D02*
X194410000Y-106620000D01*
X194530000Y-104380000D02*
X194530000Y-106620000D01*
X198580000Y-105500000D02*
X197930000Y-105500000D01*
X193690000Y-104380000D02*
X197930000Y-104380000D01*
X197930000Y-106620000D01*
X193690000Y-106620000D01*
X193690000Y-104380000D01*
%TO.C,SW6*%
X203690000Y-68390000D02*
X203690000Y-68910000D01*
X203690000Y-75590000D02*
X203690000Y-76110000D01*
X204200000Y-68390000D02*
X203690000Y-68390000D01*
X204200000Y-68910000D02*
X203690000Y-68910000D01*
X204200000Y-75590000D02*
X203690000Y-75590000D01*
X204200000Y-76110000D02*
X203690000Y-76110000D01*
X207030000Y-68910000D02*
X206800000Y-68910000D01*
X207030000Y-68910000D02*
X207030000Y-69450000D01*
X207030000Y-70550000D02*
X207030000Y-73950000D01*
X207030000Y-75050000D02*
X207030000Y-75590000D01*
X207030000Y-75590000D02*
X206800000Y-75590000D01*
X208900000Y-68390000D02*
X206800000Y-68390000D01*
X208900000Y-76110000D02*
X206800000Y-76110000D01*
%TO.C,D11*%
X169230000Y-71500000D02*
X169880000Y-71500000D01*
X173280000Y-72620000D02*
X173280000Y-70380000D01*
X173400000Y-72620000D02*
X173400000Y-70380000D01*
X173520000Y-72620000D02*
X173520000Y-70380000D01*
X174770000Y-71500000D02*
X174120000Y-71500000D01*
X174120000Y-72620000D02*
X169880000Y-72620000D01*
X169880000Y-70380000D01*
X174120000Y-70380000D01*
X174120000Y-72620000D01*
%TO.C,R7*%
X136772936Y-73765000D02*
X137227064Y-73765000D01*
X136772936Y-75235000D02*
X137227064Y-75235000D01*
%TO.C,SW11*%
X151250000Y-93500000D02*
X151250000Y-95000000D01*
X152500000Y-97500000D02*
X157000000Y-97500000D01*
X157000000Y-91000000D02*
X152500000Y-91000000D01*
X158250000Y-95000000D02*
X158250000Y-93500000D01*
%TO.C,U1*%
X125165000Y-92050000D02*
X125165000Y-93000000D01*
X126565000Y-92050000D02*
X125165000Y-92050000D01*
X142165000Y-92050000D02*
X143565000Y-92050000D01*
X143565000Y-92050000D02*
X143565000Y-93000000D01*
X143565000Y-111500000D02*
X143565000Y-111000000D01*
X144065000Y-111000000D01*
X143565000Y-111500000D01*
G36*
X143565000Y-111500000D02*
G01*
X143565000Y-111000000D01*
X144065000Y-111000000D01*
X143565000Y-111500000D01*
G37*
%TO.C,C6*%
X125261252Y-82765000D02*
X124738748Y-82765000D01*
X125261252Y-84235000D02*
X124738748Y-84235000D01*
%TO.C,D15*%
X142265000Y-67620000D02*
X142265000Y-71720000D01*
X142265000Y-67620000D02*
X143165000Y-67620000D01*
X146465000Y-67620000D02*
X145565000Y-67620000D01*
X146465000Y-67620000D02*
X146465000Y-71820000D01*
X142985000Y-72140000D02*
X142705000Y-71860000D01*
X142985000Y-71860000D01*
X142985000Y-72140000D01*
G36*
X142985000Y-72140000D02*
G01*
X142705000Y-71860000D01*
X142985000Y-71860000D01*
X142985000Y-72140000D01*
G37*
%TO.C,C7*%
X157738748Y-62265000D02*
X158261252Y-62265000D01*
X157738748Y-63735000D02*
X158261252Y-63735000D01*
%TO.C,D7*%
X189230000Y-71500000D02*
X189880000Y-71500000D01*
X193280000Y-72620000D02*
X193280000Y-70380000D01*
X193400000Y-72620000D02*
X193400000Y-70380000D01*
X193520000Y-72620000D02*
X193520000Y-70380000D01*
X194770000Y-71500000D02*
X194120000Y-71500000D01*
X194120000Y-72620000D02*
X189880000Y-72620000D01*
X189880000Y-70380000D01*
X194120000Y-70380000D01*
X194120000Y-72620000D01*
%TO.C,J6*%
X160940000Y-113440000D02*
X160940000Y-115560000D01*
X163000000Y-113440000D02*
X160940000Y-113440000D01*
X163000000Y-113440000D02*
X163000000Y-115560000D01*
X163000000Y-115560000D02*
X160940000Y-115560000D01*
X165060000Y-114500000D02*
X165060000Y-115560000D01*
X165060000Y-115560000D02*
X164000000Y-115560000D01*
%TO.C,D10*%
X179230000Y-71500000D02*
X179880000Y-71500000D01*
X183280000Y-72620000D02*
X183280000Y-70380000D01*
X183400000Y-72620000D02*
X183400000Y-70380000D01*
X183520000Y-72620000D02*
X183520000Y-70380000D01*
X184770000Y-71500000D02*
X184120000Y-71500000D01*
X184120000Y-72620000D02*
X179880000Y-72620000D01*
X179880000Y-70380000D01*
X184120000Y-70380000D01*
X184120000Y-72620000D01*
%TO.C,C1*%
X157738748Y-65265000D02*
X158261252Y-65265000D01*
X157738748Y-66735000D02*
X158261252Y-66735000D01*
%TO.C,D9*%
X131252500Y-77040000D02*
X131252500Y-78960000D01*
X131252500Y-78960000D02*
X133937500Y-78960000D01*
X133937500Y-77040000D02*
X131252500Y-77040000D01*
%TO.C,R3*%
X151314564Y-78265000D02*
X150860436Y-78265000D01*
X151314564Y-79735000D02*
X150860436Y-79735000D01*
%TO.C,D3*%
X110880000Y-69780000D02*
X113120000Y-69780000D01*
X110880000Y-69900000D02*
X113120000Y-69900000D01*
X110880000Y-70020000D02*
X113120000Y-70020000D01*
X112000000Y-65730000D02*
X112000000Y-66380000D01*
X112000000Y-71270000D02*
X112000000Y-70620000D01*
X110880000Y-70620000D02*
X113120000Y-70620000D01*
X113120000Y-66380000D01*
X110880000Y-66380000D01*
X110880000Y-70620000D01*
%TO.C,D5*%
X182420000Y-105500000D02*
X183070000Y-105500000D01*
X183670000Y-104380000D02*
X183670000Y-106620000D01*
X183790000Y-104380000D02*
X183790000Y-106620000D01*
X183910000Y-104380000D02*
X183910000Y-106620000D01*
X187960000Y-105500000D02*
X187310000Y-105500000D01*
X183070000Y-104380000D02*
X187310000Y-104380000D01*
X187310000Y-106620000D01*
X183070000Y-106620000D01*
X183070000Y-104380000D01*
%TO.C,SW9*%
X151250000Y-104000000D02*
X151250000Y-105500000D01*
X152500000Y-108000000D02*
X157000000Y-108000000D01*
X157000000Y-101500000D02*
X152500000Y-101500000D01*
X158250000Y-105500000D02*
X158250000Y-104000000D01*
%TO.C,D6*%
X199880000Y-73555000D02*
X202120000Y-73555000D01*
X199880000Y-73675000D02*
X202120000Y-73675000D01*
X199880000Y-73795000D02*
X202120000Y-73795000D01*
X201000000Y-69505000D02*
X201000000Y-70155000D01*
X201000000Y-75045000D02*
X201000000Y-74395000D01*
X199880000Y-74395000D02*
X202120000Y-74395000D01*
X202120000Y-70155000D01*
X199880000Y-70155000D01*
X199880000Y-74395000D01*
%TO.C,J7*%
X169940000Y-113440000D02*
X169940000Y-115560000D01*
X176000000Y-113440000D02*
X169940000Y-113440000D01*
X176000000Y-113440000D02*
X176000000Y-115560000D01*
X176000000Y-115560000D02*
X169940000Y-115560000D01*
X178060000Y-114500000D02*
X178060000Y-115560000D01*
X178060000Y-115560000D02*
X177000000Y-115560000D01*
%TO.C,U6*%
X121227500Y-76490000D02*
X123047500Y-76490000D01*
X121227500Y-76540000D02*
X121227500Y-76490000D01*
X121227500Y-79610000D02*
X121227500Y-79560000D01*
X123047500Y-76490000D02*
X123047500Y-76540000D01*
X123047500Y-79560000D02*
X123047500Y-79610000D01*
X123047500Y-79610000D02*
X121227500Y-79610000D01*
X120687500Y-76540000D02*
X120447500Y-76210000D01*
X120927500Y-76210000D01*
X120687500Y-76540000D01*
G36*
X120687500Y-76540000D02*
G01*
X120447500Y-76210000D01*
X120927500Y-76210000D01*
X120687500Y-76540000D01*
G37*
%TO.C,R9*%
X148227064Y-95765000D02*
X147772936Y-95765000D01*
X148227064Y-97235000D02*
X147772936Y-97235000D01*
%TO.C,D13*%
X146900000Y-88820000D02*
X146900000Y-84620000D01*
X146900000Y-88820000D02*
X147800000Y-88820000D01*
X151100000Y-88820000D02*
X150200000Y-88820000D01*
X151100000Y-88820000D02*
X151100000Y-84720000D01*
X150660000Y-84580000D02*
X150380000Y-84580000D01*
X150380000Y-84300000D01*
X150660000Y-84580000D01*
G36*
X150660000Y-84580000D02*
G01*
X150380000Y-84580000D01*
X150380000Y-84300000D01*
X150660000Y-84580000D01*
G37*
%TO.C,SW5*%
X181890000Y-109987500D02*
X181890000Y-109477500D01*
X181890000Y-114687500D02*
X181890000Y-112587500D01*
X182410000Y-109477500D02*
X181890000Y-109477500D01*
X182410000Y-109987500D02*
X182410000Y-109477500D01*
X182410000Y-112817500D02*
X182410000Y-112587500D01*
X182950000Y-112817500D02*
X182410000Y-112817500D01*
X187450000Y-112817500D02*
X184050000Y-112817500D01*
X189090000Y-109987500D02*
X189090000Y-109477500D01*
X189090000Y-112817500D02*
X188550000Y-112817500D01*
X189090000Y-112817500D02*
X189090000Y-112587500D01*
X189610000Y-109477500D02*
X189090000Y-109477500D01*
X189610000Y-109987500D02*
X189610000Y-109477500D01*
X189610000Y-114687500D02*
X189610000Y-112587500D01*
%TO.C,J9*%
X201886000Y-110744000D02*
X201886000Y-112804000D01*
X201886000Y-110744000D02*
X204006000Y-110744000D01*
X201886000Y-112804000D02*
X204006000Y-112804000D01*
X202946000Y-108684000D02*
X204006000Y-108684000D01*
X204006000Y-108684000D02*
X204006000Y-109744000D01*
X204006000Y-110744000D02*
X204006000Y-112804000D01*
%TO.C,U4*%
X127227500Y-76490000D02*
X129047500Y-76490000D01*
X127227500Y-76540000D02*
X127227500Y-76490000D01*
X127227500Y-79610000D02*
X127227500Y-79560000D01*
X129047500Y-76490000D02*
X129047500Y-76540000D01*
X129047500Y-79560000D02*
X129047500Y-79610000D01*
X129047500Y-79610000D02*
X127227500Y-79610000D01*
X126687500Y-76540000D02*
X126447500Y-76210000D01*
X126927500Y-76210000D01*
X126687500Y-76540000D01*
G36*
X126687500Y-76540000D02*
G01*
X126447500Y-76210000D01*
X126927500Y-76210000D01*
X126687500Y-76540000D01*
G37*
%TO.C,R6*%
X132772936Y-73765000D02*
X133227064Y-73765000D01*
X132772936Y-75235000D02*
X133227064Y-75235000D01*
%TO.C,R4*%
X129314564Y-82265000D02*
X128860436Y-82265000D01*
X129314564Y-83735000D02*
X128860436Y-83735000D01*
%TO.C,U2*%
X142240000Y-74240000D02*
X146360000Y-74240000D01*
X142240000Y-74335000D02*
X142240000Y-74240000D01*
X142240000Y-79360000D02*
X142240000Y-79265000D01*
X146360000Y-74240000D02*
X146360000Y-74335000D01*
X146360000Y-79265000D02*
X146360000Y-79360000D01*
X146360000Y-79360000D02*
X142240000Y-79360000D01*
X147140000Y-79600000D02*
X146660000Y-79600000D01*
X146900000Y-79270000D01*
X147140000Y-79600000D01*
G36*
X147140000Y-79600000D02*
G01*
X146660000Y-79600000D01*
X146900000Y-79270000D01*
X147140000Y-79600000D01*
G37*
%TO.C,R5*%
X121227064Y-82765000D02*
X120772936Y-82765000D01*
X121227064Y-84235000D02*
X120772936Y-84235000D01*
%TO.C,SW4*%
X191890000Y-109987500D02*
X191890000Y-109477500D01*
X191890000Y-114687500D02*
X191890000Y-112587500D01*
X192410000Y-109477500D02*
X191890000Y-109477500D01*
X192410000Y-109987500D02*
X192410000Y-109477500D01*
X192410000Y-112817500D02*
X192410000Y-112587500D01*
X192950000Y-112817500D02*
X192410000Y-112817500D01*
X197450000Y-112817500D02*
X194050000Y-112817500D01*
X199090000Y-109987500D02*
X199090000Y-109477500D01*
X199090000Y-112817500D02*
X198550000Y-112817500D01*
X199090000Y-112817500D02*
X199090000Y-112587500D01*
X199610000Y-109477500D02*
X199090000Y-109477500D01*
X199610000Y-109987500D02*
X199610000Y-109477500D01*
X199610000Y-114687500D02*
X199610000Y-112587500D01*
%TO.C,J5*%
X119670000Y-89770000D02*
X119670000Y-92370000D01*
X119670000Y-89770000D02*
X122330000Y-89770000D01*
X119670000Y-92370000D02*
X122330000Y-92370000D01*
X121000000Y-87170000D02*
X122330000Y-87170000D01*
X122330000Y-87170000D02*
X122330000Y-88500000D01*
X122330000Y-89770000D02*
X122330000Y-92370000D01*
%TO.C,SW1*%
X94400000Y-99400000D02*
X94400000Y-114600000D01*
X94400000Y-114600000D02*
X109600000Y-114600000D01*
X109600000Y-99400000D02*
X94400000Y-99400000D01*
X109600000Y-114600000D02*
X109600000Y-99400000D01*
%TO.C,SW3*%
X94600000Y-63900000D02*
X94600000Y-79100000D01*
X94600000Y-79100000D02*
X109800000Y-79100000D01*
X109800000Y-63900000D02*
X94600000Y-63900000D01*
X109800000Y-79100000D02*
X109800000Y-63900000D01*
%TO.C,R1*%
X136685436Y-80265000D02*
X137139564Y-80265000D01*
X136685436Y-81735000D02*
X137139564Y-81735000D01*
%TO.C,U5*%
X164230000Y-77084000D02*
X165490000Y-77084000D01*
X164230000Y-80844000D02*
X164230000Y-77084000D01*
X171050000Y-77084000D02*
X169790000Y-77084000D01*
X171050000Y-80844000D02*
X171050000Y-77084000D01*
X164330000Y-82124000D02*
X164000000Y-82364000D01*
X164000000Y-81884000D01*
X164330000Y-82124000D01*
G36*
X164330000Y-82124000D02*
G01*
X164000000Y-82364000D01*
X164000000Y-81884000D01*
X164330000Y-82124000D01*
G37*
%TO.C,D14*%
X140900000Y-85820000D02*
X140900000Y-81620000D01*
X140900000Y-85820000D02*
X141800000Y-85820000D01*
X145100000Y-85820000D02*
X144200000Y-85820000D01*
X145100000Y-85820000D02*
X145100000Y-81720000D01*
X144660000Y-81580000D02*
X144380000Y-81580000D01*
X144380000Y-81300000D01*
X144660000Y-81580000D01*
G36*
X144660000Y-81580000D02*
G01*
X144380000Y-81580000D01*
X144380000Y-81300000D01*
X144660000Y-81580000D01*
G37*
%TO.C,C2*%
X149265000Y-69738748D02*
X149265000Y-70261252D01*
X150735000Y-69738748D02*
X150735000Y-70261252D01*
%TO.C,J4*%
X194890000Y-100390000D02*
X194890000Y-102610000D01*
X205000000Y-100390000D02*
X194890000Y-100390000D01*
X205000000Y-100390000D02*
X205000000Y-102610000D01*
X205000000Y-102610000D02*
X194890000Y-102610000D01*
X206000000Y-100390000D02*
X207110000Y-100390000D01*
X207110000Y-100390000D02*
X207110000Y-101500000D01*
%TO.C,D8*%
X135252500Y-77040000D02*
X135252500Y-78960000D01*
X135252500Y-78960000D02*
X137937500Y-78960000D01*
X137937500Y-77040000D02*
X135252500Y-77040000D01*
%TO.C,J1*%
X130150000Y-65175000D02*
X130150000Y-66875000D01*
X139490000Y-65175000D02*
X139490000Y-66875000D01*
%TO.C,C4*%
X155265000Y-69788748D02*
X155265000Y-70311252D01*
X156735000Y-69788748D02*
X156735000Y-70311252D01*
%TO.C,SW10*%
X167890000Y-63600000D02*
X167890000Y-65700000D01*
X167890000Y-68300000D02*
X167890000Y-68810000D01*
X167890000Y-68810000D02*
X168410000Y-68810000D01*
X168410000Y-65470000D02*
X168410000Y-65700000D01*
X168410000Y-65470000D02*
X168950000Y-65470000D01*
X168410000Y-68300000D02*
X168410000Y-68810000D01*
X170050000Y-65470000D02*
X173450000Y-65470000D01*
X174550000Y-65470000D02*
X175090000Y-65470000D01*
X175090000Y-65470000D02*
X175090000Y-65700000D01*
X175090000Y-68300000D02*
X175090000Y-68810000D01*
X175090000Y-68810000D02*
X175610000Y-68810000D01*
X175610000Y-63600000D02*
X175610000Y-65700000D01*
X175610000Y-68300000D02*
X175610000Y-68810000D01*
%TO.C,D1*%
X110880000Y-102590000D02*
X113120000Y-102590000D01*
X110880000Y-102710000D02*
X113120000Y-102710000D01*
X110880000Y-102830000D02*
X113120000Y-102830000D01*
X112000000Y-98540000D02*
X112000000Y-99190000D01*
X112000000Y-104080000D02*
X112000000Y-103430000D01*
X110880000Y-103430000D02*
X113120000Y-103430000D01*
X113120000Y-99190000D01*
X110880000Y-99190000D01*
X110880000Y-103430000D01*
%TO.C,D12*%
X124530000Y-71200000D02*
X127470000Y-71200000D01*
X124530000Y-71320000D02*
X127470000Y-71320000D01*
X124530000Y-71440000D02*
X127470000Y-71440000D01*
X126000000Y-65760000D02*
X126000000Y-66780000D01*
X126000000Y-73240000D02*
X126000000Y-72220000D01*
X124530000Y-72220000D02*
X127470000Y-72220000D01*
X127470000Y-66780000D01*
X124530000Y-66780000D01*
X124530000Y-72220000D01*
%TO.C,J8*%
X163024000Y-69596000D02*
X163024000Y-71656000D01*
X163024000Y-69596000D02*
X165144000Y-69596000D01*
X163024000Y-71656000D02*
X165144000Y-71656000D01*
X164084000Y-67536000D02*
X165144000Y-67536000D01*
X165144000Y-67536000D02*
X165144000Y-68596000D01*
X165144000Y-69596000D02*
X165144000Y-71656000D01*
%TO.C,D2*%
X110880000Y-85590000D02*
X113120000Y-85590000D01*
X110880000Y-85710000D02*
X113120000Y-85710000D01*
X110880000Y-85830000D02*
X113120000Y-85830000D01*
X112000000Y-81540000D02*
X112000000Y-82190000D01*
X112000000Y-87080000D02*
X112000000Y-86430000D01*
X110880000Y-86430000D02*
X113120000Y-86430000D01*
X113120000Y-82190000D01*
X110880000Y-82190000D01*
X110880000Y-86430000D01*
%TD*%
M02*
