M48
; DRILL file {KiCad 9.0.6} date 2025-12-15T15:09:00+0700
; FORMAT={-:-/ absolute / metric / decimal}
; #@! TF.CreationDate,2025-12-15T15:09:00+07:00
; #@! TF.GenerationSoftware,Kicad,Pcbnew,9.0.6
; #@! TF.FileFunction,NonPlated,1,2,NPTH
FMAT,2
METRIC
; #@! TA.AperFunction,NonPlated,NPTH,ComponentDrill
T1C0.650
; #@! TA.AperFunction,NonPlated,NPTH,ComponentDrill
T2C1.600
; #@! TA.AperFunction,NonPlated,NPTH,ComponentDrill
T3C1.900
; #@! TA.AperFunction,NonPlated,NPTH,ComponentDrill
T4C3.050
; #@! TA.AperFunction,NonPlated,NPTH,ComponentDrill
T5C5.050
%
G90
G05
T1
X131.93Y-67.68
X137.71Y-67.68
T2
X96.85Y-84.0
X96.85Y-102.0
X97.05Y-66.5
T3
X102.0Y-83.5
X102.0Y-94.5
X102.0Y-101.5
X102.0Y-112.5
X102.2Y-66.0
X102.2Y-77.0
T4
X105.8Y-94.0
X105.8Y-112.0
X106.0Y-76.5
X107.9Y-89.0
X107.9Y-107.0
X108.1Y-71.5
T5
X102.0Y-89.0
X102.0Y-107.0
X102.2Y-71.5
M30
